<?xml version="1.0" encoding="UTF-8" standalone="no"?>
<!DOCTYPE svg PUBLIC "-//W3C//DTD SVG 1.1//EN"
 "http://www.w3.org/Graphics/SVG/1.1/DTD/svg11.dtd">
<!-- Generated by graphviz version 2.40.1 (20161225.0304)
 -->
<!-- Title: twoDegreesRelationshipsDiagram Pages: 1 -->
<svg width="567pt" height="1087pt"
 viewBox="0.00 0.00 567.00 1087.20" xmlns="http://www.w3.org/2000/svg" xmlns:xlink="http://www.w3.org/1999/xlink">
<g id="graph0" class="graph" transform="scale(1 1) rotate(0) translate(4 1083.2)">
<title>twoDegreesRelationshipsDiagram</title>
<polygon fill="#ffffff" stroke="transparent" points="-4,4 -4,-1083.2 563,-1083.2 563,4 -4,4"/>
<text text-anchor="middle" x="72.4936" y="-7.3" font-family="Helvetica,sans-Serif" font-size="11.00" fill="#000000">Generated by SchemaSpy</text>
<!-- activity_tracking -->
<g id="node1" class="node">
<title>activity_tracking</title>
<g id="a_node1"><a xlink:href="../../tables/activity_tracking.html" xlink:title="activity_tracking" target="_top">
<polygon fill="#ffffff" stroke="transparent" points="320,-1014.2 320,-1075.2 453,-1075.2 453,-1014.2 320,-1014.2"/>
<polygon fill="#f5f5f5" stroke="transparent" points="320.5,-1051.7 320.5,-1074.7 453.5,-1074.7 453.5,-1051.7 320.5,-1051.7"/>
<polygon fill="none" stroke="#000000" points="320.5,-1051.7 320.5,-1074.7 453.5,-1074.7 453.5,-1051.7 320.5,-1051.7"/>
<text text-anchor="start" x="325.5" y="-1060.3" font-family="Helvetica,sans-Serif" font-weight="bold" font-size="11.00" fill="#000000">activity_tracking</text>
<text text-anchor="start" x="419.0219" y="-1059.8" font-family="Helvetica,sans-Serif" font-size="11.00" fill="#000000">[table]</text>
<polygon fill="none" stroke="#000000" points="320.5,-1032.7 320.5,-1051.7 453.5,-1051.7 453.5,-1032.7 320.5,-1032.7"/>
<text text-anchor="start" x="323.5" y="-1038.8" font-family="Helvetica,sans-Serif" font-size="11.00" fill="#000000">...</text>
<polygon fill="#ffffff" stroke="transparent" points="320.5,-1013.7 320.5,-1032.7 385.5,-1032.7 385.5,-1013.7 320.5,-1013.7"/>
<polygon fill="none" stroke="#000000" points="320.5,-1013.7 320.5,-1032.7 385.5,-1032.7 385.5,-1013.7 320.5,-1013.7"/>
<text text-anchor="start" x="323.5" y="-1019.8" font-family="Helvetica,sans-Serif" font-size="11.00" fill="#000000">&lt; 1</text>
<polygon fill="#ffffff" stroke="transparent" points="385.5,-1013.7 385.5,-1032.7 419.5,-1032.7 419.5,-1013.7 385.5,-1013.7"/>
<polygon fill="none" stroke="#000000" points="385.5,-1013.7 385.5,-1032.7 419.5,-1032.7 419.5,-1013.7 385.5,-1013.7"/>
<text text-anchor="start" x="410.3862" y="-1019.8" font-family="Helvetica,sans-Serif" font-size="11.00" fill="#000000"> &#160;</text>
<polygon fill="#ffffff" stroke="transparent" points="419.5,-1013.7 419.5,-1032.7 453.5,-1032.7 453.5,-1013.7 419.5,-1013.7"/>
<polygon fill="none" stroke="#000000" points="419.5,-1013.7 419.5,-1032.7 453.5,-1032.7 453.5,-1013.7 419.5,-1013.7"/>
<text text-anchor="start" x="444.3862" y="-1019.8" font-family="Helvetica,sans-Serif" font-size="11.00" fill="#000000"> &#160;</text>
</a>
</g>
</g>
<!-- package_group -->
<g id="node2" class="node">
<title>package_group</title>
<g id="a_node2"><a xlink:href="../../tables/package_group.html" xlink:title="package_group" target="_top">
<polygon fill="#ffffff" stroke="transparent" points="8,-479.2 8,-584.2 173,-584.2 173,-479.2 8,-479.2"/>
<polygon fill="#f5f5f5" stroke="transparent" points="8.5,-560.7 8.5,-583.7 173.5,-583.7 173.5,-560.7 8.5,-560.7"/>
<polygon fill="none" stroke="#000000" points="8.5,-560.7 8.5,-583.7 173.5,-583.7 173.5,-560.7 8.5,-560.7"/>
<text text-anchor="start" x="13.5" y="-569.3" font-family="Helvetica,sans-Serif" font-weight="bold" font-size="11.00" fill="#000000">package_group</text>
<text text-anchor="start" x="138.5437" y="-568.8" font-family="Helvetica,sans-Serif" font-size="11.00" fill="#000000">[table]</text>
<polygon fill="none" stroke="#000000" points="8.5,-538.7 8.5,-560.7 173.5,-560.7 173.5,-538.7 8.5,-538.7"/>
<image xlink:href="../../images/primaryKeys.png" width="11px" height="12px" preserveAspectRatio="xMinYMin meet" x="13.5" y="-555.7"/>
<text text-anchor="start" x="28.5" y="-545.8" font-family="Helvetica,sans-Serif" font-size="11.00" fill="#000000">id</text>
<polygon fill="none" stroke="#000000" points="8.5,-516.7 8.5,-538.7 173.5,-538.7 173.5,-516.7 8.5,-516.7"/>
<image xlink:href="../../images/foreignKeys.png" width="11px" height="12px" preserveAspectRatio="xMinYMin meet" x="13.5" y="-533.7"/>
<text text-anchor="start" x="28.5" y="-523.8" font-family="Helvetica,sans-Serif" font-size="11.00" fill="#000000">parent_id</text>
<polygon fill="none" stroke="#000000" points="8.5,-497.7 8.5,-516.7 173.5,-516.7 173.5,-497.7 8.5,-497.7"/>
<text text-anchor="start" x="11.5" y="-503.8" font-family="Helvetica,sans-Serif" font-size="11.00" fill="#000000">...</text>
<polygon fill="#ffffff" stroke="transparent" points="8.5,-478.7 8.5,-497.7 81.5,-497.7 81.5,-478.7 8.5,-478.7"/>
<polygon fill="none" stroke="#000000" points="8.5,-478.7 8.5,-497.7 81.5,-497.7 81.5,-478.7 8.5,-478.7"/>
<text text-anchor="start" x="11.5" y="-484.8" font-family="Helvetica,sans-Serif" font-size="11.00" fill="#000000">&lt; 1</text>
<polygon fill="#ffffff" stroke="transparent" points="81.5,-478.7 81.5,-497.7 119.5,-497.7 119.5,-478.7 81.5,-478.7"/>
<polygon fill="none" stroke="#000000" points="81.5,-478.7 81.5,-497.7 119.5,-497.7 119.5,-478.7 81.5,-478.7"/>
<text text-anchor="start" x="110.3862" y="-484.8" font-family="Helvetica,sans-Serif" font-size="11.00" fill="#000000"> &#160;</text>
<polygon fill="#ffffff" stroke="transparent" points="119.5,-478.7 119.5,-497.7 173.5,-497.7 173.5,-478.7 119.5,-478.7"/>
<polygon fill="none" stroke="#000000" points="119.5,-478.7 119.5,-497.7 173.5,-497.7 173.5,-478.7 119.5,-478.7"/>
<text text-anchor="start" x="148.7904" y="-484.8" font-family="Helvetica,sans-Serif" font-size="11.00" fill="#000000">14 &gt;</text>
</a>
</g>
</g>
<!-- activity_tracking&#45;&gt;package_group -->
<g id="edge1" class="edge">
<title>activity_tracking:w&#45;&gt;package_group:e</title>
<path fill="none" stroke="#000000" d="M305.9225,-1041.7088C265.012,-1041.6269 241.6307,-1039.4106 214,-1003.7 183.0081,-963.6451 224.1448,-549.7 173.5,-549.7"/>
<polygon fill="#000000" stroke="#000000" points="312.5,-1041.7049 320.5022,-1045.3 316.5,-1041.7024 320.5,-1041.7 320.5,-1041.7 320.5,-1041.7 316.5,-1041.7024 320.4978,-1038.1 312.5,-1041.7049 312.5,-1041.7049"/>
<ellipse fill="none" stroke="#000000" cx="309.3" cy="-1041.7068" rx="3.2" ry="3.2"/>
</g>
<!-- build -->
<g id="node3" class="node">
<title>build</title>
<g id="a_node3"><a xlink:href="../../tables/build.html" xlink:title="build" target="_top">
<polygon fill="#ffffff" stroke="transparent" points="353,-932.2 353,-993.2 420,-993.2 420,-932.2 353,-932.2"/>
<polygon fill="#f5f5f5" stroke="transparent" points="353.5,-969.7 353.5,-992.7 420.5,-992.7 420.5,-969.7 353.5,-969.7"/>
<polygon fill="none" stroke="#000000" points="353.5,-969.7 353.5,-992.7 420.5,-992.7 420.5,-969.7 353.5,-969.7"/>
<text text-anchor="start" x="358.5" y="-978.3" font-family="Helvetica,sans-Serif" font-weight="bold" font-size="11.00" fill="#000000">build</text>
<text text-anchor="start" x="386.0219" y="-977.8" font-family="Helvetica,sans-Serif" font-size="11.00" fill="#000000">[table]</text>
<polygon fill="none" stroke="#000000" points="353.5,-950.7 353.5,-969.7 420.5,-969.7 420.5,-950.7 353.5,-950.7"/>
<text text-anchor="start" x="356.5" y="-956.8" font-family="Helvetica,sans-Serif" font-size="11.00" fill="#000000">...</text>
<polygon fill="#ffffff" stroke="transparent" points="353.5,-931.7 353.5,-950.7 380.5,-950.7 380.5,-931.7 353.5,-931.7"/>
<polygon fill="none" stroke="#000000" points="353.5,-931.7 353.5,-950.7 380.5,-950.7 380.5,-931.7 353.5,-931.7"/>
<text text-anchor="start" x="356.5" y="-937.8" font-family="Helvetica,sans-Serif" font-size="11.00" fill="#000000">&lt; 1</text>
<polygon fill="#ffffff" stroke="transparent" points="380.5,-931.7 380.5,-950.7 395.5,-950.7 395.5,-931.7 380.5,-931.7"/>
<polygon fill="none" stroke="#000000" points="380.5,-931.7 380.5,-950.7 395.5,-950.7 395.5,-931.7 380.5,-931.7"/>
<text text-anchor="start" x="386.3862" y="-937.8" font-family="Helvetica,sans-Serif" font-size="11.00" fill="#000000"> &#160;</text>
<polygon fill="#ffffff" stroke="transparent" points="395.5,-931.7 395.5,-950.7 420.5,-950.7 420.5,-931.7 395.5,-931.7"/>
<polygon fill="none" stroke="#000000" points="395.5,-931.7 395.5,-950.7 420.5,-950.7 420.5,-931.7 395.5,-931.7"/>
<text text-anchor="start" x="401.9053" y="-937.8" font-family="Helvetica,sans-Serif" font-size="11.00" fill="#000000">5 &gt;</text>
</a>
</g>
</g>
<!-- build&#45;&gt;package_group -->
<g id="edge2" class="edge">
<title>build:w&#45;&gt;package_group:e</title>
<path fill="none" stroke="#000000" d="M338.9836,-959.8654C283.9536,-961.0341 252.463,-966.7538 214,-921.7 160.0085,-858.4569 256.6551,-549.7 173.5,-549.7"/>
<polygon fill="#000000" stroke="#000000" points="345.5005,-959.7912 353.541,-963.2998 349.5003,-959.7456 353.5,-959.7 353.5,-959.7 353.5,-959.7 349.5003,-959.7456 353.459,-956.1002 345.5005,-959.7912 345.5005,-959.7912"/>
<ellipse fill="none" stroke="#000000" cx="342.3007" cy="-959.8277" rx="3.2" ry="3.2"/>
</g>
<!-- favorite_packages -->
<g id="node4" class="node">
<title>favorite_packages</title>
<g id="a_node4"><a xlink:href="../../tables/favorite_packages.html" xlink:title="favorite_packages" target="_top">
<polygon fill="#ffffff" stroke="transparent" points="315,-850.2 315,-911.2 458,-911.2 458,-850.2 315,-850.2"/>
<polygon fill="#f5f5f5" stroke="transparent" points="315.5,-887.7 315.5,-910.7 458.5,-910.7 458.5,-887.7 315.5,-887.7"/>
<polygon fill="none" stroke="#000000" points="315.5,-887.7 315.5,-910.7 458.5,-910.7 458.5,-887.7 315.5,-887.7"/>
<text text-anchor="start" x="320.5" y="-896.3" font-family="Helvetica,sans-Serif" font-weight="bold" font-size="11.00" fill="#000000">favorite_packages</text>
<text text-anchor="start" x="424.0219" y="-895.8" font-family="Helvetica,sans-Serif" font-size="11.00" fill="#000000">[table]</text>
<polygon fill="none" stroke="#000000" points="315.5,-868.7 315.5,-887.7 458.5,-887.7 458.5,-868.7 315.5,-868.7"/>
<text text-anchor="start" x="318.5" y="-874.8" font-family="Helvetica,sans-Serif" font-size="11.00" fill="#000000">...</text>
<polygon fill="#ffffff" stroke="transparent" points="315.5,-849.7 315.5,-868.7 385.5,-868.7 385.5,-849.7 315.5,-849.7"/>
<polygon fill="none" stroke="#000000" points="315.5,-849.7 315.5,-868.7 385.5,-868.7 385.5,-849.7 315.5,-849.7"/>
<text text-anchor="start" x="318.5" y="-855.8" font-family="Helvetica,sans-Serif" font-size="11.00" fill="#000000">&lt; 2</text>
<polygon fill="#ffffff" stroke="transparent" points="385.5,-849.7 385.5,-868.7 421.5,-868.7 421.5,-849.7 385.5,-849.7"/>
<polygon fill="none" stroke="#000000" points="385.5,-849.7 385.5,-868.7 421.5,-868.7 421.5,-849.7 385.5,-849.7"/>
<text text-anchor="start" x="412.3862" y="-855.8" font-family="Helvetica,sans-Serif" font-size="11.00" fill="#000000"> &#160;</text>
<polygon fill="#ffffff" stroke="transparent" points="421.5,-849.7 421.5,-868.7 458.5,-868.7 458.5,-849.7 421.5,-849.7"/>
<polygon fill="none" stroke="#000000" points="421.5,-849.7 421.5,-868.7 458.5,-868.7 458.5,-849.7 421.5,-849.7"/>
<text text-anchor="start" x="449.3862" y="-855.8" font-family="Helvetica,sans-Serif" font-size="11.00" fill="#000000"> &#160;</text>
</a>
</g>
</g>
<!-- favorite_packages&#45;&gt;package_group -->
<g id="edge3" class="edge">
<title>favorite_packages:w&#45;&gt;package_group:e</title>
<path fill="none" stroke="#000000" d="M301.0547,-877.6431C262.3592,-877.1992 240.9482,-873.3218 214,-839.7 173.3044,-788.9264 238.5699,-549.7 173.5,-549.7"/>
<polygon fill="#000000" stroke="#000000" points="307.5001,-877.6684 315.4858,-881.3 311.5,-877.6842 315.5,-877.7 315.5,-877.7 315.5,-877.7 311.5,-877.6842 315.5142,-874.1 307.5001,-877.6684 307.5001,-877.6684"/>
<ellipse fill="none" stroke="#000000" cx="304.3001" cy="-877.6558" rx="3.2" ry="3.2"/>
</g>
<!-- operation_open_count -->
<g id="node5" class="node">
<title>operation_open_count</title>
<g id="a_node5"><a xlink:href="../../tables/operation_open_count.html" xlink:title="operation_open_count" target="_top">
<polygon fill="#ffffff" stroke="transparent" points="302.5,-768.2 302.5,-829.2 470.5,-829.2 470.5,-768.2 302.5,-768.2"/>
<polygon fill="#f5f5f5" stroke="transparent" points="302.5,-805.7 302.5,-828.7 470.5,-828.7 470.5,-805.7 302.5,-805.7"/>
<polygon fill="none" stroke="#000000" points="302.5,-805.7 302.5,-828.7 470.5,-828.7 470.5,-805.7 302.5,-805.7"/>
<text text-anchor="start" x="307.5" y="-814.3" font-family="Helvetica,sans-Serif" font-weight="bold" font-size="11.00" fill="#000000">operation_open_count</text>
<text text-anchor="start" x="436.0219" y="-813.8" font-family="Helvetica,sans-Serif" font-size="11.00" fill="#000000">[table]</text>
<polygon fill="none" stroke="#000000" points="302.5,-786.7 302.5,-805.7 470.5,-805.7 470.5,-786.7 302.5,-786.7"/>
<text text-anchor="start" x="305.5" y="-792.8" font-family="Helvetica,sans-Serif" font-size="11.00" fill="#000000">...</text>
<polygon fill="#ffffff" stroke="transparent" points="302.5,-767.7 302.5,-786.7 384.5,-786.7 384.5,-767.7 302.5,-767.7"/>
<polygon fill="none" stroke="#000000" points="302.5,-767.7 302.5,-786.7 384.5,-786.7 384.5,-767.7 302.5,-767.7"/>
<text text-anchor="start" x="305.5" y="-773.8" font-family="Helvetica,sans-Serif" font-size="11.00" fill="#000000">&lt; 1</text>
<polygon fill="#ffffff" stroke="transparent" points="384.5,-767.7 384.5,-786.7 427.5,-786.7 427.5,-767.7 384.5,-767.7"/>
<polygon fill="none" stroke="#000000" points="384.5,-767.7 384.5,-786.7 427.5,-786.7 427.5,-767.7 384.5,-767.7"/>
<text text-anchor="start" x="418.3862" y="-773.8" font-family="Helvetica,sans-Serif" font-size="11.00" fill="#000000"> &#160;</text>
<polygon fill="#ffffff" stroke="transparent" points="427.5,-767.7 427.5,-786.7 470.5,-786.7 470.5,-767.7 427.5,-767.7"/>
<polygon fill="none" stroke="#000000" points="427.5,-767.7 427.5,-786.7 470.5,-786.7 470.5,-767.7 427.5,-767.7"/>
<text text-anchor="start" x="461.3862" y="-773.8" font-family="Helvetica,sans-Serif" font-size="11.00" fill="#000000"> &#160;</text>
</a>
</g>
</g>
<!-- operation_open_count&#45;&gt;package_group -->
<g id="edge4" class="edge">
<title>operation_open_count:w&#45;&gt;package_group:e</title>
<path fill="none" stroke="#000000" d="M287.9477,-795.4515C255.0182,-794.1462 237.6205,-786.9834 214,-757.7 154.8705,-684.3946 267.6805,-549.7 173.5,-549.7"/>
<polygon fill="#000000" stroke="#000000" points="294.5012,-795.5634 302.4385,-799.2995 298.5006,-795.6317 302.5,-795.7 302.5,-795.7 302.5,-795.7 298.5006,-795.6317 302.5615,-792.1005 294.5012,-795.5634 294.5012,-795.5634"/>
<ellipse fill="none" stroke="#000000" cx="291.3016" cy="-795.5087" rx="3.2" ry="3.2"/>
</g>
<!-- package_export_config -->
<g id="node6" class="node">
<title>package_export_config</title>
<g id="a_node6"><a xlink:href="../../tables/package_export_config.html" xlink:title="package_export_config" target="_top">
<polygon fill="#ffffff" stroke="transparent" points="300,-686.2 300,-747.2 473,-747.2 473,-686.2 300,-686.2"/>
<polygon fill="#f5f5f5" stroke="transparent" points="300.5,-723.7 300.5,-746.7 473.5,-746.7 473.5,-723.7 300.5,-723.7"/>
<polygon fill="none" stroke="#000000" points="300.5,-723.7 300.5,-746.7 473.5,-746.7 473.5,-723.7 300.5,-723.7"/>
<text text-anchor="start" x="305.5" y="-732.3" font-family="Helvetica,sans-Serif" font-weight="bold" font-size="11.00" fill="#000000">package_export_config</text>
<text text-anchor="start" x="439.0219" y="-731.8" font-family="Helvetica,sans-Serif" font-size="11.00" fill="#000000">[table]</text>
<polygon fill="none" stroke="#000000" points="300.5,-704.7 300.5,-723.7 473.5,-723.7 473.5,-704.7 300.5,-704.7"/>
<text text-anchor="start" x="303.5" y="-710.8" font-family="Helvetica,sans-Serif" font-size="11.00" fill="#000000">...</text>
<polygon fill="#ffffff" stroke="transparent" points="300.5,-685.7 300.5,-704.7 385.5,-704.7 385.5,-685.7 300.5,-685.7"/>
<polygon fill="none" stroke="#000000" points="300.5,-685.7 300.5,-704.7 385.5,-704.7 385.5,-685.7 300.5,-685.7"/>
<text text-anchor="start" x="303.5" y="-691.8" font-family="Helvetica,sans-Serif" font-size="11.00" fill="#000000">&lt; 1</text>
<polygon fill="#ffffff" stroke="transparent" points="385.5,-685.7 385.5,-704.7 429.5,-704.7 429.5,-685.7 385.5,-685.7"/>
<polygon fill="none" stroke="#000000" points="385.5,-685.7 385.5,-704.7 429.5,-704.7 429.5,-685.7 385.5,-685.7"/>
<text text-anchor="start" x="420.3862" y="-691.8" font-family="Helvetica,sans-Serif" font-size="11.00" fill="#000000"> &#160;</text>
<polygon fill="#ffffff" stroke="transparent" points="429.5,-685.7 429.5,-704.7 473.5,-704.7 473.5,-685.7 429.5,-685.7"/>
<polygon fill="none" stroke="#000000" points="429.5,-685.7 429.5,-704.7 473.5,-704.7 473.5,-685.7 429.5,-685.7"/>
<text text-anchor="start" x="464.3862" y="-691.8" font-family="Helvetica,sans-Serif" font-size="11.00" fill="#000000"> &#160;</text>
</a>
</g>
</g>
<!-- package_export_config&#45;&gt;package_group -->
<g id="edge5" class="edge">
<title>package_export_config:w&#45;&gt;package_group:e</title>
<path fill="none" stroke="#000000" d="M289.7752,-713.5221C255.4706,-712.2779 239.5983,-704.0786 214,-675.7 174.6014,-632.0222 232.3218,-549.7 173.5,-549.7"/>
<polygon fill="#000000" stroke="#000000" points="299.7665,-709.6873 299.6337,-717.6862 298.034,-717.6596 298.1667,-709.6607 299.7665,-709.6873"/>
<polyline fill="none" stroke="#000000" points="300.5,-713.7 296.5006,-713.6336 "/>
<ellipse fill="none" stroke="#000000" cx="293.301" cy="-713.5805" rx="3.2" ry="3.2"/>
</g>
<!-- package_member_role -->
<g id="node7" class="node">
<title>package_member_role</title>
<g id="a_node7"><a xlink:href="../../tables/package_member_role.html" xlink:title="package_member_role" target="_top">
<polygon fill="#ffffff" stroke="transparent" points="302,-604.2 302,-665.2 471,-665.2 471,-604.2 302,-604.2"/>
<polygon fill="#f5f5f5" stroke="transparent" points="302.5,-641.7 302.5,-664.7 471.5,-664.7 471.5,-641.7 302.5,-641.7"/>
<polygon fill="none" stroke="#000000" points="302.5,-641.7 302.5,-664.7 471.5,-664.7 471.5,-641.7 302.5,-641.7"/>
<text text-anchor="start" x="307.5" y="-650.3" font-family="Helvetica,sans-Serif" font-weight="bold" font-size="11.00" fill="#000000">package_member_role</text>
<text text-anchor="start" x="437.0219" y="-649.8" font-family="Helvetica,sans-Serif" font-size="11.00" fill="#000000">[table]</text>
<polygon fill="none" stroke="#000000" points="302.5,-622.7 302.5,-641.7 471.5,-641.7 471.5,-622.7 302.5,-622.7"/>
<text text-anchor="start" x="305.5" y="-628.8" font-family="Helvetica,sans-Serif" font-size="11.00" fill="#000000">...</text>
<polygon fill="#ffffff" stroke="transparent" points="302.5,-603.7 302.5,-622.7 385.5,-622.7 385.5,-603.7 302.5,-603.7"/>
<polygon fill="none" stroke="#000000" points="302.5,-603.7 302.5,-622.7 385.5,-622.7 385.5,-603.7 302.5,-603.7"/>
<text text-anchor="start" x="305.5" y="-609.8" font-family="Helvetica,sans-Serif" font-size="11.00" fill="#000000">&lt; 1</text>
<polygon fill="#ffffff" stroke="transparent" points="385.5,-603.7 385.5,-622.7 428.5,-622.7 428.5,-603.7 385.5,-603.7"/>
<polygon fill="none" stroke="#000000" points="385.5,-603.7 385.5,-622.7 428.5,-622.7 428.5,-603.7 385.5,-603.7"/>
<text text-anchor="start" x="419.3862" y="-609.8" font-family="Helvetica,sans-Serif" font-size="11.00" fill="#000000"> &#160;</text>
<polygon fill="#ffffff" stroke="transparent" points="428.5,-603.7 428.5,-622.7 471.5,-622.7 471.5,-603.7 428.5,-603.7"/>
<polygon fill="none" stroke="#000000" points="428.5,-603.7 428.5,-622.7 471.5,-622.7 471.5,-603.7 428.5,-603.7"/>
<text text-anchor="start" x="462.3862" y="-609.8" font-family="Helvetica,sans-Serif" font-size="11.00" fill="#000000"> &#160;</text>
</a>
</g>
</g>
<!-- package_member_role&#45;&gt;package_group -->
<g id="edge6" class="edge">
<title>package_member_role:w&#45;&gt;package_group:e</title>
<path fill="none" stroke="#000000" d="M287.8401,-631.0819C256.6262,-628.2053 244.5668,-615.3463 214,-593.7 192.3095,-578.3396 200.0786,-549.7 173.5,-549.7"/>
<polygon fill="#000000" stroke="#000000" points="294.5071,-631.3629 302.3483,-635.2968 298.5036,-631.5315 302.5,-631.7 302.5,-631.7 302.5,-631.7 298.5036,-631.5315 302.6517,-628.1032 294.5071,-631.3629 294.5071,-631.3629"/>
<ellipse fill="none" stroke="#000000" cx="291.3099" cy="-631.2281" rx="3.2" ry="3.2"/>
</g>
<!-- package_service -->
<g id="node8" class="node">
<title>package_service</title>
<g id="a_node8"><a xlink:href="../../tables/package_service.html" xlink:title="package_service" target="_top">
<polygon fill="#ffffff" stroke="transparent" points="319,-522.2 319,-583.2 454,-583.2 454,-522.2 319,-522.2"/>
<polygon fill="#f5f5f5" stroke="transparent" points="319.5,-559.7 319.5,-582.7 454.5,-582.7 454.5,-559.7 319.5,-559.7"/>
<polygon fill="none" stroke="#000000" points="319.5,-559.7 319.5,-582.7 454.5,-582.7 454.5,-559.7 319.5,-559.7"/>
<text text-anchor="start" x="324.5" y="-568.3" font-family="Helvetica,sans-Serif" font-weight="bold" font-size="11.00" fill="#000000">package_service</text>
<text text-anchor="start" x="420.0219" y="-567.8" font-family="Helvetica,sans-Serif" font-size="11.00" fill="#000000">[table]</text>
<polygon fill="none" stroke="#000000" points="319.5,-540.7 319.5,-559.7 454.5,-559.7 454.5,-540.7 319.5,-540.7"/>
<text text-anchor="start" x="322.5" y="-546.8" font-family="Helvetica,sans-Serif" font-size="11.00" fill="#000000">...</text>
<polygon fill="#ffffff" stroke="transparent" points="319.5,-521.7 319.5,-540.7 385.5,-540.7 385.5,-521.7 319.5,-521.7"/>
<polygon fill="none" stroke="#000000" points="319.5,-521.7 319.5,-540.7 385.5,-540.7 385.5,-521.7 319.5,-521.7"/>
<text text-anchor="start" x="322.5" y="-527.8" font-family="Helvetica,sans-Serif" font-size="11.00" fill="#000000">&lt; 2</text>
<polygon fill="#ffffff" stroke="transparent" points="385.5,-521.7 385.5,-540.7 419.5,-540.7 419.5,-521.7 385.5,-521.7"/>
<polygon fill="none" stroke="#000000" points="385.5,-521.7 385.5,-540.7 419.5,-540.7 419.5,-521.7 385.5,-521.7"/>
<text text-anchor="start" x="410.3862" y="-527.8" font-family="Helvetica,sans-Serif" font-size="11.00" fill="#000000"> &#160;</text>
<polygon fill="#ffffff" stroke="transparent" points="419.5,-521.7 419.5,-540.7 454.5,-540.7 454.5,-521.7 419.5,-521.7"/>
<polygon fill="none" stroke="#000000" points="419.5,-521.7 419.5,-540.7 454.5,-540.7 454.5,-521.7 419.5,-521.7"/>
<text text-anchor="start" x="445.3862" y="-527.8" font-family="Helvetica,sans-Serif" font-size="11.00" fill="#000000"> &#160;</text>
</a>
</g>
</g>
<!-- package_service&#45;&gt;package_group -->
<g id="edge7" class="edge">
<title>package_service:w&#45;&gt;package_group:e</title>
<path fill="none" stroke="#000000" d="M305.1364,-548.4036C251.7794,-543.7366 233.3194,-544.1688 173.5,-549.7"/>
<polygon fill="#000000" stroke="#000000" points="311.5324,-548.9808 319.1764,-553.2854 315.5162,-549.3404 319.5,-549.7 319.5,-549.7 319.5,-549.7 315.5162,-549.3404 319.8236,-546.1146 311.5324,-548.9808 311.5324,-548.9808"/>
<ellipse fill="none" stroke="#000000" cx="308.3453" cy="-548.6932" rx="3.2" ry="3.2"/>
</g>
<!-- package_service&#45;&gt;package_group -->
<g id="edge8" class="edge">
<title>package_service:w&#45;&gt;package_group:e</title>
<path fill="none" stroke="#000000" d="M305.1364,-551.2125C251.7794,-556.6573 233.3194,-556.1531 173.5,-549.7"/>
<polygon fill="#000000" stroke="#000000" points="311.544,-550.5378 319.877,-553.2802 315.522,-550.1189 319.5,-549.7 319.5,-549.7 319.5,-549.7 315.522,-550.1189 319.123,-546.1198 311.544,-550.5378 311.544,-550.5378"/>
<ellipse fill="none" stroke="#000000" cx="308.3616" cy="-550.8729" rx="3.2" ry="3.2"/>
</g>
<!-- published_data -->
<g id="node9" class="node">
<title>published_data</title>
<g id="a_node9"><a xlink:href="../../tables/published_data.html" xlink:title="published_data" target="_top">
<polygon fill="#ffffff" stroke="transparent" points="323,-440.2 323,-501.2 450,-501.2 450,-440.2 323,-440.2"/>
<polygon fill="#f5f5f5" stroke="transparent" points="323.5,-477.7 323.5,-500.7 450.5,-500.7 450.5,-477.7 323.5,-477.7"/>
<polygon fill="none" stroke="#000000" points="323.5,-477.7 323.5,-500.7 450.5,-500.7 450.5,-477.7 323.5,-477.7"/>
<text text-anchor="start" x="328.5" y="-486.3" font-family="Helvetica,sans-Serif" font-weight="bold" font-size="11.00" fill="#000000">published_data</text>
<text text-anchor="start" x="416.0219" y="-485.8" font-family="Helvetica,sans-Serif" font-size="11.00" fill="#000000">[table]</text>
<polygon fill="none" stroke="#000000" points="323.5,-458.7 323.5,-477.7 450.5,-477.7 450.5,-458.7 323.5,-458.7"/>
<text text-anchor="start" x="326.5" y="-464.8" font-family="Helvetica,sans-Serif" font-size="11.00" fill="#000000">...</text>
<polygon fill="#ffffff" stroke="transparent" points="323.5,-439.7 323.5,-458.7 380.5,-458.7 380.5,-439.7 323.5,-439.7"/>
<polygon fill="none" stroke="#000000" points="323.5,-439.7 323.5,-458.7 380.5,-458.7 380.5,-439.7 323.5,-439.7"/>
<text text-anchor="start" x="326.5" y="-445.8" font-family="Helvetica,sans-Serif" font-size="11.00" fill="#000000">&lt; 1</text>
<polygon fill="#ffffff" stroke="transparent" points="380.5,-439.7 380.5,-458.7 410.5,-458.7 410.5,-439.7 380.5,-439.7"/>
<polygon fill="none" stroke="#000000" points="380.5,-439.7 380.5,-458.7 410.5,-458.7 410.5,-439.7 380.5,-439.7"/>
<text text-anchor="start" x="401.3862" y="-445.8" font-family="Helvetica,sans-Serif" font-size="11.00" fill="#000000"> &#160;</text>
<polygon fill="#ffffff" stroke="transparent" points="410.5,-439.7 410.5,-458.7 450.5,-458.7 450.5,-439.7 410.5,-439.7"/>
<polygon fill="none" stroke="#000000" points="410.5,-439.7 410.5,-458.7 450.5,-458.7 450.5,-439.7 410.5,-439.7"/>
<text text-anchor="start" x="431.9053" y="-445.8" font-family="Helvetica,sans-Serif" font-size="11.00" fill="#000000">2 &gt;</text>
</a>
</g>
</g>
<!-- published_data&#45;&gt;package_group -->
<g id="edge9" class="edge">
<title>published_data:w&#45;&gt;package_group:e</title>
<path fill="none" stroke="#000000" d="M308.9359,-468.1668C268.1833,-470.9695 253.8136,-486.303 214,-511.7 193.1907,-524.9742 198.1827,-549.7 173.5,-549.7"/>
<polygon fill="#000000" stroke="#000000" points="315.5041,-467.9563 323.6153,-471.2982 319.5021,-467.8282 323.5,-467.7 323.5,-467.7 323.5,-467.7 319.5021,-467.8282 323.3847,-464.1018 315.5041,-467.9563 315.5041,-467.9563"/>
<ellipse fill="none" stroke="#000000" cx="312.3057" cy="-468.0588" rx="3.2" ry="3.2"/>
</g>
<!-- published_document_open_count -->
<g id="node10" class="node">
<title>published_document_open_count</title>
<g id="a_node10"><a xlink:href="../../tables/published_document_open_count.html" xlink:title="published_document_open_count" target="_top">
<polygon fill="#ffffff" stroke="transparent" points="222,-284.7 222,-418.7 551,-418.7 551,-284.7 222,-284.7"/>
<polygon fill="#f5f5f5" stroke="transparent" points="224.5,-393.7 224.5,-416.7 549.5,-416.7 549.5,-393.7 224.5,-393.7"/>
<polygon fill="none" stroke="#000000" points="224.5,-393.7 224.5,-416.7 549.5,-416.7 549.5,-393.7 224.5,-393.7"/>
<text text-anchor="start" x="229.5" y="-402.3" font-family="Helvetica,sans-Serif" font-weight="bold" font-size="11.00" fill="#000000">published_document_open_count</text>
<text text-anchor="start" x="514.5437" y="-401.8" font-family="Helvetica,sans-Serif" font-size="11.00" fill="#000000">[table]</text>
<polygon fill="none" stroke="#000000" points="224.5,-371.7 224.5,-393.7 440.5,-393.7 440.5,-371.7 224.5,-371.7"/>
<image xlink:href="../../images/primaryKeys.png" width="11px" height="12px" preserveAspectRatio="xMinYMin meet" x="229.5" y="-388.7"/>
<text text-anchor="start" x="244.5" y="-378.8" font-family="Helvetica,sans-Serif" font-size="11.00" fill="#000000">package_id</text>
<polygon fill="none" stroke="#000000" points="440.5,-371.7 440.5,-393.7 549.5,-393.7 549.5,-371.7 440.5,-371.7"/>
<text text-anchor="start" x="443.0344" y="-379.4" font-family="Helvetica,sans-Serif" font-size="11.00" fill="#000000">varchar[2147483647]</text>
<polygon fill="none" stroke="#000000" points="224.5,-349.7 224.5,-371.7 440.5,-371.7 440.5,-349.7 224.5,-349.7"/>
<image xlink:href="../../images/primaryKeys.png" width="11px" height="12px" preserveAspectRatio="xMinYMin meet" x="229.5" y="-366.7"/>
<text text-anchor="start" x="244.5" y="-356.8" font-family="Helvetica,sans-Serif" font-size="11.00" fill="#000000">version</text>
<polygon fill="none" stroke="#000000" points="440.5,-349.7 440.5,-371.7 549.5,-371.7 549.5,-349.7 440.5,-349.7"/>
<text text-anchor="start" x="443.0344" y="-357.4" font-family="Helvetica,sans-Serif" font-size="11.00" fill="#000000">varchar[2147483647]</text>
<polygon fill="none" stroke="#000000" points="224.5,-327.7 224.5,-349.7 440.5,-349.7 440.5,-327.7 224.5,-327.7"/>
<image xlink:href="../../images/primaryKeys.png" width="11px" height="12px" preserveAspectRatio="xMinYMin meet" x="229.5" y="-344.7"/>
<text text-anchor="start" x="244.5" y="-334.8" font-family="Helvetica,sans-Serif" font-size="11.00" fill="#000000">slug</text>
<polygon fill="none" stroke="#000000" points="440.5,-327.7 440.5,-349.7 549.5,-349.7 549.5,-327.7 440.5,-327.7"/>
<text text-anchor="start" x="443.0344" y="-335.4" font-family="Helvetica,sans-Serif" font-size="11.00" fill="#000000">varchar[2147483647]</text>
<polygon fill="none" stroke="#000000" points="224.5,-305.7 224.5,-327.7 440.5,-327.7 440.5,-305.7 224.5,-305.7"/>
<text text-anchor="start" x="244.5" y="-312.8" font-family="Helvetica,sans-Serif" font-size="11.00" fill="#000000">open_count</text>
<polygon fill="none" stroke="#000000" points="440.5,-305.7 440.5,-327.7 549.5,-327.7 549.5,-305.7 440.5,-305.7"/>
<text text-anchor="start" x="443.5" y="-313.4" font-family="Helvetica,sans-Serif" font-size="11.00" fill="#000000">int8[19]</text>
<polygon fill="#ffffff" stroke="transparent" points="224.5,-286.7 224.5,-305.7 336.5,-305.7 336.5,-286.7 224.5,-286.7"/>
<polygon fill="none" stroke="#000000" points="224.5,-286.7 224.5,-305.7 336.5,-305.7 336.5,-286.7 224.5,-286.7"/>
<text text-anchor="start" x="227.5" y="-292.8" font-family="Helvetica,sans-Serif" font-size="11.00" fill="#000000">&lt; 1</text>
<polygon fill="#ffffff" stroke="transparent" points="336.5,-286.7 336.5,-305.7 440.5,-305.7 440.5,-286.7 336.5,-286.7"/>
<polygon fill="none" stroke="#000000" points="336.5,-286.7 336.5,-305.7 440.5,-305.7 440.5,-286.7 336.5,-286.7"/>
<text text-anchor="start" x="431.3862" y="-292.8" font-family="Helvetica,sans-Serif" font-size="11.00" fill="#000000"> &#160;</text>
<polygon fill="#ffffff" stroke="transparent" points="440.5,-286.7 440.5,-305.7 549.5,-305.7 549.5,-286.7 440.5,-286.7"/>
<polygon fill="none" stroke="#000000" points="440.5,-286.7 440.5,-305.7 549.5,-305.7 549.5,-286.7 440.5,-286.7"/>
<text text-anchor="start" x="530.9053" y="-292.8" font-family="Helvetica,sans-Serif" font-size="11.00" fill="#000000">0 &gt;</text>
<polygon fill="none" stroke="#000000" stroke-width="2" points="223,-285.7 223,-417.7 550,-417.7 550,-285.7 223,-285.7"/>
</a>
</g>
</g>
<!-- published_document_open_count&#45;&gt;package_group -->
<g id="edge10" class="edge">
<title>published_document_open_count:w&#45;&gt;package_group:e</title>
<path fill="none" stroke="#000000" d="M210.0764,-385.3232C161.3613,-406.5692 245.3463,-549.7 173.5,-549.7"/>
<polygon fill="#000000" stroke="#000000" points="216.6291,-384.1315 225.1442,-386.2419 220.5646,-383.4158 224.5,-382.7 224.5,-382.7 224.5,-382.7 220.5646,-383.4158 223.8558,-379.1581 216.6291,-384.1315 216.6291,-384.1315"/>
<ellipse fill="none" stroke="#000000" cx="213.4808" cy="-384.7041" rx="3.2" ry="3.2"/>
</g>
<!-- published_version -->
<g id="node11" class="node">
<title>published_version</title>
<g id="a_node11"><a xlink:href="../../tables/published_version.html" xlink:title="published_version" target="_top">
<polygon fill="#ffffff" stroke="transparent" points="314,-202.2 314,-263.2 459,-263.2 459,-202.2 314,-202.2"/>
<polygon fill="#f5f5f5" stroke="transparent" points="314.5,-239.7 314.5,-262.7 459.5,-262.7 459.5,-239.7 314.5,-239.7"/>
<polygon fill="none" stroke="#000000" points="314.5,-239.7 314.5,-262.7 459.5,-262.7 459.5,-239.7 314.5,-239.7"/>
<text text-anchor="start" x="319.5" y="-248.3" font-family="Helvetica,sans-Serif" font-weight="bold" font-size="11.00" fill="#000000">published_version</text>
<text text-anchor="start" x="425.0219" y="-247.8" font-family="Helvetica,sans-Serif" font-size="11.00" fill="#000000">[table]</text>
<polygon fill="none" stroke="#000000" points="314.5,-220.7 314.5,-239.7 459.5,-239.7 459.5,-220.7 314.5,-220.7"/>
<text text-anchor="start" x="317.5" y="-226.8" font-family="Helvetica,sans-Serif" font-size="11.00" fill="#000000">...</text>
<polygon fill="#ffffff" stroke="transparent" points="314.5,-201.7 314.5,-220.7 377.5,-220.7 377.5,-201.7 314.5,-201.7"/>
<polygon fill="none" stroke="#000000" points="314.5,-201.7 314.5,-220.7 377.5,-220.7 377.5,-201.7 314.5,-201.7"/>
<text text-anchor="start" x="317.5" y="-207.8" font-family="Helvetica,sans-Serif" font-size="11.00" fill="#000000">&lt; 1</text>
<polygon fill="#ffffff" stroke="transparent" points="377.5,-201.7 377.5,-220.7 410.5,-220.7 410.5,-201.7 377.5,-201.7"/>
<polygon fill="none" stroke="#000000" points="377.5,-201.7 377.5,-220.7 410.5,-220.7 410.5,-201.7 377.5,-201.7"/>
<text text-anchor="start" x="401.3862" y="-207.8" font-family="Helvetica,sans-Serif" font-size="11.00" fill="#000000"> &#160;</text>
<polygon fill="#ffffff" stroke="transparent" points="410.5,-201.7 410.5,-220.7 459.5,-220.7 459.5,-201.7 410.5,-201.7"/>
<polygon fill="none" stroke="#000000" points="410.5,-201.7 410.5,-220.7 459.5,-220.7 459.5,-201.7 410.5,-201.7"/>
<text text-anchor="start" x="434.7904" y="-207.8" font-family="Helvetica,sans-Serif" font-size="11.00" fill="#000000">21 &gt;</text>
</a>
</g>
</g>
<!-- published_version&#45;&gt;package_group -->
<g id="edge11" class="edge">
<title>published_version:w&#45;&gt;package_group:e</title>
<path fill="none" stroke="#000000" d="M299.8731,-229.9313C260.8317,-231.3291 240.4247,-239.7963 214,-274.7 176.7152,-323.9485 235.2703,-549.7 173.5,-549.7"/>
<polygon fill="#000000" stroke="#000000" points="306.501,-229.8266 314.557,-233.2995 310.5005,-229.7633 314.5,-229.7 314.5,-229.7 314.5,-229.7 310.5005,-229.7633 314.443,-226.1005 306.501,-229.8266 306.501,-229.8266"/>
<ellipse fill="none" stroke="#000000" cx="303.3014" cy="-229.8772" rx="3.2" ry="3.2"/>
</g>
<!-- published_version_open_count -->
<g id="node12" class="node">
<title>published_version_open_count</title>
<g id="a_node12"><a xlink:href="../../tables/published_version_open_count.html" xlink:title="published_version_open_count" target="_top">
<polygon fill="#ffffff" stroke="transparent" points="277,-120.2 277,-181.2 496,-181.2 496,-120.2 277,-120.2"/>
<polygon fill="#f5f5f5" stroke="transparent" points="277.5,-157.7 277.5,-180.7 496.5,-180.7 496.5,-157.7 277.5,-157.7"/>
<polygon fill="none" stroke="#000000" points="277.5,-157.7 277.5,-180.7 496.5,-180.7 496.5,-157.7 277.5,-157.7"/>
<text text-anchor="start" x="282.5" y="-166.3" font-family="Helvetica,sans-Serif" font-weight="bold" font-size="11.00" fill="#000000">published_version_open_count</text>
<text text-anchor="start" x="462.0219" y="-165.8" font-family="Helvetica,sans-Serif" font-size="11.00" fill="#000000">[table]</text>
<polygon fill="none" stroke="#000000" points="277.5,-138.7 277.5,-157.7 496.5,-157.7 496.5,-138.7 277.5,-138.7"/>
<text text-anchor="start" x="280.5" y="-144.8" font-family="Helvetica,sans-Serif" font-size="11.00" fill="#000000">...</text>
<polygon fill="#ffffff" stroke="transparent" points="277.5,-119.7 277.5,-138.7 385.5,-138.7 385.5,-119.7 277.5,-119.7"/>
<polygon fill="none" stroke="#000000" points="277.5,-119.7 277.5,-138.7 385.5,-138.7 385.5,-119.7 277.5,-119.7"/>
<text text-anchor="start" x="280.5" y="-125.8" font-family="Helvetica,sans-Serif" font-size="11.00" fill="#000000">&lt; 1</text>
<polygon fill="#ffffff" stroke="transparent" points="385.5,-119.7 385.5,-138.7 440.5,-138.7 440.5,-119.7 385.5,-119.7"/>
<polygon fill="none" stroke="#000000" points="385.5,-119.7 385.5,-138.7 440.5,-138.7 440.5,-119.7 385.5,-119.7"/>
<text text-anchor="start" x="431.3862" y="-125.8" font-family="Helvetica,sans-Serif" font-size="11.00" fill="#000000"> &#160;</text>
<polygon fill="#ffffff" stroke="transparent" points="440.5,-119.7 440.5,-138.7 496.5,-138.7 496.5,-119.7 440.5,-119.7"/>
<polygon fill="none" stroke="#000000" points="440.5,-119.7 440.5,-138.7 496.5,-138.7 496.5,-119.7 440.5,-119.7"/>
<text text-anchor="start" x="487.3862" y="-125.8" font-family="Helvetica,sans-Serif" font-size="11.00" fill="#000000"> &#160;</text>
</a>
</g>
</g>
<!-- published_version_open_count&#45;&gt;package_group -->
<g id="edge12" class="edge">
<title>published_version_open_count:w&#45;&gt;package_group:e</title>
<path fill="none" stroke="#000000" d="M262.9642,-148.7657C239.4076,-152.6049 228.8636,-166.8332 214,-191.7 172.9229,-260.4223 253.563,-549.7 173.5,-549.7"/>
<polygon fill="#000000" stroke="#000000" points="269.5214,-148.285 277.7632,-151.2904 273.5107,-147.9925 277.5,-147.7 277.5,-147.7 277.5,-147.7 273.5107,-147.9925 277.2368,-144.1096 269.5214,-148.285 269.5214,-148.285"/>
<ellipse fill="none" stroke="#000000" cx="266.33" cy="-148.519" rx="3.2" ry="3.2"/>
</g>
<!-- shared_url_info -->
<g id="node13" class="node">
<title>shared_url_info</title>
<g id="a_node13"><a xlink:href="../../tables/shared_url_info.html" xlink:title="shared_url_info" target="_top">
<polygon fill="#ffffff" stroke="transparent" points="322,-38.2 322,-99.2 451,-99.2 451,-38.2 322,-38.2"/>
<polygon fill="#f5f5f5" stroke="transparent" points="322.5,-75.7 322.5,-98.7 451.5,-98.7 451.5,-75.7 322.5,-75.7"/>
<polygon fill="none" stroke="#000000" points="322.5,-75.7 322.5,-98.7 451.5,-98.7 451.5,-75.7 322.5,-75.7"/>
<text text-anchor="start" x="327.5" y="-84.3" font-family="Helvetica,sans-Serif" font-weight="bold" font-size="11.00" fill="#000000">shared_url_info</text>
<text text-anchor="start" x="417.0219" y="-83.8" font-family="Helvetica,sans-Serif" font-size="11.00" fill="#000000">[table]</text>
<polygon fill="none" stroke="#000000" points="322.5,-56.7 322.5,-75.7 451.5,-75.7 451.5,-56.7 322.5,-56.7"/>
<text text-anchor="start" x="325.5" y="-62.8" font-family="Helvetica,sans-Serif" font-size="11.00" fill="#000000">...</text>
<polygon fill="#ffffff" stroke="transparent" points="322.5,-37.7 322.5,-56.7 385.5,-56.7 385.5,-37.7 322.5,-37.7"/>
<polygon fill="none" stroke="#000000" points="322.5,-37.7 322.5,-56.7 385.5,-56.7 385.5,-37.7 322.5,-37.7"/>
<text text-anchor="start" x="325.5" y="-43.8" font-family="Helvetica,sans-Serif" font-size="11.00" fill="#000000">&lt; 1</text>
<polygon fill="#ffffff" stroke="transparent" points="385.5,-37.7 385.5,-56.7 418.5,-56.7 418.5,-37.7 385.5,-37.7"/>
<polygon fill="none" stroke="#000000" points="385.5,-37.7 385.5,-56.7 418.5,-56.7 418.5,-37.7 385.5,-37.7"/>
<text text-anchor="start" x="409.3862" y="-43.8" font-family="Helvetica,sans-Serif" font-size="11.00" fill="#000000"> &#160;</text>
<polygon fill="#ffffff" stroke="transparent" points="418.5,-37.7 418.5,-56.7 451.5,-56.7 451.5,-37.7 418.5,-37.7"/>
<polygon fill="none" stroke="#000000" points="418.5,-37.7 418.5,-56.7 451.5,-56.7 451.5,-37.7 418.5,-37.7"/>
<text text-anchor="start" x="442.3862" y="-43.8" font-family="Helvetica,sans-Serif" font-size="11.00" fill="#000000"> &#160;</text>
</a>
</g>
</g>
<!-- shared_url_info&#45;&gt;package_group -->
<g id="edge13" class="edge">
<title>shared_url_info:w&#45;&gt;package_group:e</title>
<path fill="none" stroke="#000000" d="M307.9858,-65.7983C265.4408,-66.5109 241.9907,-72.0001 214,-109.7 184.7332,-149.1186 222.5956,-549.7 173.5,-549.7"/>
<polygon fill="#000000" stroke="#000000" points="314.5002,-65.7542 322.5244,-69.2999 318.5001,-65.7271 322.5,-65.7 322.5,-65.7 322.5,-65.7 318.5001,-65.7271 322.4756,-62.1001 314.5002,-65.7542 314.5002,-65.7542"/>
<ellipse fill="none" stroke="#000000" cx="311.3003" cy="-65.7759" rx="3.2" ry="3.2"/>
</g>
</g>
</svg>
