<?xml version="1.0" encoding="UTF-8" standalone="no"?>
<!DOCTYPE svg PUBLIC "-//W3C//DTD SVG 1.1//EN"
 "http://www.w3.org/Graphics/SVG/1.1/DTD/svg11.dtd">
<!-- Generated by graphviz version 2.40.1 (20161225.0304)
 -->
<!-- Title: twoDegreesRelationshipsDiagram Pages: 1 -->
<svg width="552pt" height="1065pt"
 viewBox="0.00 0.00 552.00 1065.20" xmlns="http://www.w3.org/2000/svg" xmlns:xlink="http://www.w3.org/1999/xlink">
<g id="graph0" class="graph" transform="scale(1 1) rotate(0) translate(4 1061.2)">
<title>twoDegreesRelationshipsDiagram</title>
<polygon fill="#ffffff" stroke="transparent" points="-4,4 -4,-1061.2 548,-1061.2 548,4 -4,4"/>
<text text-anchor="middle" x="72.4936" y="-7.3" font-family="Helvetica,sans-Serif" font-size="11.00" fill="#000000">Generated by SchemaSpy</text>
<!-- activity_tracking -->
<g id="node1" class="node">
<title>activity_tracking</title>
<g id="a_node1"><a xlink:href="../../tables/activity_tracking.html" xlink:title="activity_tracking" target="_top">
<polygon fill="#ffffff" stroke="transparent" points="312.5,-992.2 312.5,-1053.2 445.5,-1053.2 445.5,-992.2 312.5,-992.2"/>
<polygon fill="#f5f5f5" stroke="transparent" points="313,-1029.7 313,-1052.7 446,-1052.7 446,-1029.7 313,-1029.7"/>
<polygon fill="none" stroke="#000000" points="313,-1029.7 313,-1052.7 446,-1052.7 446,-1029.7 313,-1029.7"/>
<text text-anchor="start" x="318" y="-1038.3" font-family="Helvetica,sans-Serif" font-weight="bold" font-size="11.00" fill="#000000">activity_tracking</text>
<text text-anchor="start" x="411.5219" y="-1037.8" font-family="Helvetica,sans-Serif" font-size="11.00" fill="#000000">[table]</text>
<polygon fill="none" stroke="#000000" points="313,-1010.7 313,-1029.7 446,-1029.7 446,-1010.7 313,-1010.7"/>
<text text-anchor="start" x="316" y="-1016.8" font-family="Helvetica,sans-Serif" font-size="11.00" fill="#000000">...</text>
<polygon fill="#ffffff" stroke="transparent" points="313,-991.7 313,-1010.7 378,-1010.7 378,-991.7 313,-991.7"/>
<polygon fill="none" stroke="#000000" points="313,-991.7 313,-1010.7 378,-1010.7 378,-991.7 313,-991.7"/>
<text text-anchor="start" x="316" y="-997.8" font-family="Helvetica,sans-Serif" font-size="11.00" fill="#000000">&lt; 1</text>
<polygon fill="#ffffff" stroke="transparent" points="378,-991.7 378,-1010.7 412,-1010.7 412,-991.7 378,-991.7"/>
<polygon fill="none" stroke="#000000" points="378,-991.7 378,-1010.7 412,-1010.7 412,-991.7 378,-991.7"/>
<text text-anchor="start" x="402.8862" y="-997.8" font-family="Helvetica,sans-Serif" font-size="11.00" fill="#000000"> &#160;</text>
<polygon fill="#ffffff" stroke="transparent" points="412,-991.7 412,-1010.7 446,-1010.7 446,-991.7 412,-991.7"/>
<polygon fill="none" stroke="#000000" points="412,-991.7 412,-1010.7 446,-1010.7 446,-991.7 412,-991.7"/>
<text text-anchor="start" x="436.8862" y="-997.8" font-family="Helvetica,sans-Serif" font-size="11.00" fill="#000000"> &#160;</text>
</a>
</g>
</g>
<!-- package_group -->
<g id="node2" class="node">
<title>package_group</title>
<g id="a_node2"><a xlink:href="../../tables/package_group.html" xlink:title="package_group" target="_top">
<polygon fill="#ffffff" stroke="transparent" points="8,-457.2 8,-562.2 173,-562.2 173,-457.2 8,-457.2"/>
<polygon fill="#f5f5f5" stroke="transparent" points="8.5,-538.7 8.5,-561.7 173.5,-561.7 173.5,-538.7 8.5,-538.7"/>
<polygon fill="none" stroke="#000000" points="8.5,-538.7 8.5,-561.7 173.5,-561.7 173.5,-538.7 8.5,-538.7"/>
<text text-anchor="start" x="13.5" y="-547.3" font-family="Helvetica,sans-Serif" font-weight="bold" font-size="11.00" fill="#000000">package_group</text>
<text text-anchor="start" x="138.5437" y="-546.8" font-family="Helvetica,sans-Serif" font-size="11.00" fill="#000000">[table]</text>
<polygon fill="none" stroke="#000000" points="8.5,-516.7 8.5,-538.7 173.5,-538.7 173.5,-516.7 8.5,-516.7"/>
<image xlink:href="../../images/primaryKeys.png" width="11px" height="12px" preserveAspectRatio="xMinYMin meet" x="13.5" y="-533.7"/>
<text text-anchor="start" x="28.5" y="-523.8" font-family="Helvetica,sans-Serif" font-size="11.00" fill="#000000">id</text>
<polygon fill="none" stroke="#000000" points="8.5,-494.7 8.5,-516.7 173.5,-516.7 173.5,-494.7 8.5,-494.7"/>
<image xlink:href="../../images/foreignKeys.png" width="11px" height="12px" preserveAspectRatio="xMinYMin meet" x="13.5" y="-511.7"/>
<text text-anchor="start" x="28.5" y="-501.8" font-family="Helvetica,sans-Serif" font-size="11.00" fill="#000000">parent_id</text>
<polygon fill="none" stroke="#000000" points="8.5,-475.7 8.5,-494.7 173.5,-494.7 173.5,-475.7 8.5,-475.7"/>
<text text-anchor="start" x="11.5" y="-481.8" font-family="Helvetica,sans-Serif" font-size="11.00" fill="#000000">...</text>
<polygon fill="#ffffff" stroke="transparent" points="8.5,-456.7 8.5,-475.7 81.5,-475.7 81.5,-456.7 8.5,-456.7"/>
<polygon fill="none" stroke="#000000" points="8.5,-456.7 8.5,-475.7 81.5,-475.7 81.5,-456.7 8.5,-456.7"/>
<text text-anchor="start" x="11.5" y="-462.8" font-family="Helvetica,sans-Serif" font-size="11.00" fill="#000000">&lt; 1</text>
<polygon fill="#ffffff" stroke="transparent" points="81.5,-456.7 81.5,-475.7 119.5,-475.7 119.5,-456.7 81.5,-456.7"/>
<polygon fill="none" stroke="#000000" points="81.5,-456.7 81.5,-475.7 119.5,-475.7 119.5,-456.7 81.5,-456.7"/>
<text text-anchor="start" x="110.3862" y="-462.8" font-family="Helvetica,sans-Serif" font-size="11.00" fill="#000000"> &#160;</text>
<polygon fill="#ffffff" stroke="transparent" points="119.5,-456.7 119.5,-475.7 173.5,-475.7 173.5,-456.7 119.5,-456.7"/>
<polygon fill="none" stroke="#000000" points="119.5,-456.7 119.5,-475.7 173.5,-475.7 173.5,-456.7 119.5,-456.7"/>
<text text-anchor="start" x="148.7904" y="-462.8" font-family="Helvetica,sans-Serif" font-size="11.00" fill="#000000">14 &gt;</text>
</a>
</g>
</g>
<!-- activity_tracking&#45;&gt;package_group -->
<g id="edge1" class="edge">
<title>activity_tracking:w&#45;&gt;package_group:e</title>
<path fill="none" stroke="#000000" d="M298.3471,-1019.638C260.6762,-1019.1704 239.2902,-1015.201 214,-981.7 183.4863,-941.2796 224.1448,-527.7 173.5,-527.7"/>
<polygon fill="#000000" stroke="#000000" points="305.0001,-1019.6661 312.9847,-1023.3 309,-1019.683 313,-1019.7 313,-1019.7 313,-1019.7 309,-1019.683 313.0153,-1016.1 305.0001,-1019.6661 305.0001,-1019.6661"/>
<ellipse fill="none" stroke="#000000" cx="301.8001" cy="-1019.6525" rx="3.2" ry="3.2"/>
</g>
<!-- build -->
<g id="node3" class="node">
<title>build</title>
<g id="a_node3"><a xlink:href="../../tables/build.html" xlink:title="build" target="_top">
<polygon fill="#ffffff" stroke="transparent" points="345.5,-910.2 345.5,-971.2 412.5,-971.2 412.5,-910.2 345.5,-910.2"/>
<polygon fill="#f5f5f5" stroke="transparent" points="346,-947.7 346,-970.7 413,-970.7 413,-947.7 346,-947.7"/>
<polygon fill="none" stroke="#000000" points="346,-947.7 346,-970.7 413,-970.7 413,-947.7 346,-947.7"/>
<text text-anchor="start" x="351" y="-956.3" font-family="Helvetica,sans-Serif" font-weight="bold" font-size="11.00" fill="#000000">build</text>
<text text-anchor="start" x="378.5219" y="-955.8" font-family="Helvetica,sans-Serif" font-size="11.00" fill="#000000">[table]</text>
<polygon fill="none" stroke="#000000" points="346,-928.7 346,-947.7 413,-947.7 413,-928.7 346,-928.7"/>
<text text-anchor="start" x="349" y="-934.8" font-family="Helvetica,sans-Serif" font-size="11.00" fill="#000000">...</text>
<polygon fill="#ffffff" stroke="transparent" points="346,-909.7 346,-928.7 373,-928.7 373,-909.7 346,-909.7"/>
<polygon fill="none" stroke="#000000" points="346,-909.7 346,-928.7 373,-928.7 373,-909.7 346,-909.7"/>
<text text-anchor="start" x="349" y="-915.8" font-family="Helvetica,sans-Serif" font-size="11.00" fill="#000000">&lt; 1</text>
<polygon fill="#ffffff" stroke="transparent" points="373,-909.7 373,-928.7 388,-928.7 388,-909.7 373,-909.7"/>
<polygon fill="none" stroke="#000000" points="373,-909.7 373,-928.7 388,-928.7 388,-909.7 373,-909.7"/>
<text text-anchor="start" x="378.8862" y="-915.8" font-family="Helvetica,sans-Serif" font-size="11.00" fill="#000000"> &#160;</text>
<polygon fill="#ffffff" stroke="transparent" points="388,-909.7 388,-928.7 413,-928.7 413,-909.7 388,-909.7"/>
<polygon fill="none" stroke="#000000" points="388,-909.7 388,-928.7 413,-928.7 413,-909.7 388,-909.7"/>
<text text-anchor="start" x="394.4053" y="-915.8" font-family="Helvetica,sans-Serif" font-size="11.00" fill="#000000">5 &gt;</text>
</a>
</g>
</g>
<!-- build&#45;&gt;package_group -->
<g id="edge2" class="edge">
<title>build:w&#45;&gt;package_group:e</title>
<path fill="none" stroke="#000000" d="M331.5493,-937.8405C279.7072,-938.7566 250.0801,-942.5819 214,-899.7 160.4637,-836.0711 256.6551,-527.7 173.5,-527.7"/>
<polygon fill="#000000" stroke="#000000" points="338.0004,-937.7778 346.035,-941.2998 342.0002,-937.7389 346,-937.7 346,-937.7 346,-937.7 342.0002,-937.7389 345.965,-934.1002 338.0004,-937.7778 338.0004,-937.7778"/>
<ellipse fill="none" stroke="#000000" cx="334.8005" cy="-937.809" rx="3.2" ry="3.2"/>
</g>
<!-- favorite_packages -->
<g id="node4" class="node">
<title>favorite_packages</title>
<g id="a_node4"><a xlink:href="../../tables/favorite_packages.html" xlink:title="favorite_packages" target="_top">
<polygon fill="#ffffff" stroke="transparent" points="307.5,-828.2 307.5,-889.2 450.5,-889.2 450.5,-828.2 307.5,-828.2"/>
<polygon fill="#f5f5f5" stroke="transparent" points="308,-865.7 308,-888.7 451,-888.7 451,-865.7 308,-865.7"/>
<polygon fill="none" stroke="#000000" points="308,-865.7 308,-888.7 451,-888.7 451,-865.7 308,-865.7"/>
<text text-anchor="start" x="313" y="-874.3" font-family="Helvetica,sans-Serif" font-weight="bold" font-size="11.00" fill="#000000">favorite_packages</text>
<text text-anchor="start" x="416.5219" y="-873.8" font-family="Helvetica,sans-Serif" font-size="11.00" fill="#000000">[table]</text>
<polygon fill="none" stroke="#000000" points="308,-846.7 308,-865.7 451,-865.7 451,-846.7 308,-846.7"/>
<text text-anchor="start" x="311" y="-852.8" font-family="Helvetica,sans-Serif" font-size="11.00" fill="#000000">...</text>
<polygon fill="#ffffff" stroke="transparent" points="308,-827.7 308,-846.7 378,-846.7 378,-827.7 308,-827.7"/>
<polygon fill="none" stroke="#000000" points="308,-827.7 308,-846.7 378,-846.7 378,-827.7 308,-827.7"/>
<text text-anchor="start" x="311" y="-833.8" font-family="Helvetica,sans-Serif" font-size="11.00" fill="#000000">&lt; 2</text>
<polygon fill="#ffffff" stroke="transparent" points="378,-827.7 378,-846.7 414,-846.7 414,-827.7 378,-827.7"/>
<polygon fill="none" stroke="#000000" points="378,-827.7 378,-846.7 414,-846.7 414,-827.7 378,-827.7"/>
<text text-anchor="start" x="404.8862" y="-833.8" font-family="Helvetica,sans-Serif" font-size="11.00" fill="#000000"> &#160;</text>
<polygon fill="#ffffff" stroke="transparent" points="414,-827.7 414,-846.7 451,-846.7 451,-827.7 414,-827.7"/>
<polygon fill="none" stroke="#000000" points="414,-827.7 414,-846.7 451,-846.7 451,-827.7 414,-827.7"/>
<text text-anchor="start" x="441.8862" y="-833.8" font-family="Helvetica,sans-Serif" font-size="11.00" fill="#000000"> &#160;</text>
</a>
</g>
</g>
<!-- favorite_packages&#45;&gt;package_group -->
<g id="edge3" class="edge">
<title>favorite_packages:w&#45;&gt;package_group:e</title>
<path fill="none" stroke="#000000" d="M293.5598,-855.5603C258.0479,-854.715 238.5836,-849.2002 214,-817.7 173.9663,-766.4029 238.5699,-527.7 173.5,-527.7"/>
<polygon fill="#000000" stroke="#000000" points="300.0004,-855.6225 307.9651,-859.2998 304.0002,-855.6613 308,-855.7 308,-855.7 308,-855.7 304.0002,-855.6613 308.0349,-852.1002 300.0004,-855.6225 300.0004,-855.6225"/>
<ellipse fill="none" stroke="#000000" cx="296.8005" cy="-855.5915" rx="3.2" ry="3.2"/>
</g>
<!-- operation_open_count -->
<g id="node5" class="node">
<title>operation_open_count</title>
<g id="a_node5"><a xlink:href="../../tables/operation_open_count.html" xlink:title="operation_open_count" target="_top">
<polygon fill="#ffffff" stroke="transparent" points="295,-746.2 295,-807.2 463,-807.2 463,-746.2 295,-746.2"/>
<polygon fill="#f5f5f5" stroke="transparent" points="295,-783.7 295,-806.7 463,-806.7 463,-783.7 295,-783.7"/>
<polygon fill="none" stroke="#000000" points="295,-783.7 295,-806.7 463,-806.7 463,-783.7 295,-783.7"/>
<text text-anchor="start" x="300" y="-792.3" font-family="Helvetica,sans-Serif" font-weight="bold" font-size="11.00" fill="#000000">operation_open_count</text>
<text text-anchor="start" x="428.5219" y="-791.8" font-family="Helvetica,sans-Serif" font-size="11.00" fill="#000000">[table]</text>
<polygon fill="none" stroke="#000000" points="295,-764.7 295,-783.7 463,-783.7 463,-764.7 295,-764.7"/>
<text text-anchor="start" x="298" y="-770.8" font-family="Helvetica,sans-Serif" font-size="11.00" fill="#000000">...</text>
<polygon fill="#ffffff" stroke="transparent" points="295,-745.7 295,-764.7 377,-764.7 377,-745.7 295,-745.7"/>
<polygon fill="none" stroke="#000000" points="295,-745.7 295,-764.7 377,-764.7 377,-745.7 295,-745.7"/>
<text text-anchor="start" x="298" y="-751.8" font-family="Helvetica,sans-Serif" font-size="11.00" fill="#000000">&lt; 1</text>
<polygon fill="#ffffff" stroke="transparent" points="377,-745.7 377,-764.7 420,-764.7 420,-745.7 377,-745.7"/>
<polygon fill="none" stroke="#000000" points="377,-745.7 377,-764.7 420,-764.7 420,-745.7 377,-745.7"/>
<text text-anchor="start" x="410.8862" y="-751.8" font-family="Helvetica,sans-Serif" font-size="11.00" fill="#000000"> &#160;</text>
<polygon fill="#ffffff" stroke="transparent" points="420,-745.7 420,-764.7 463,-764.7 463,-745.7 420,-745.7"/>
<polygon fill="none" stroke="#000000" points="420,-745.7 420,-764.7 463,-764.7 463,-745.7 420,-745.7"/>
<text text-anchor="start" x="453.8862" y="-751.8" font-family="Helvetica,sans-Serif" font-size="11.00" fill="#000000"> &#160;</text>
</a>
</g>
</g>
<!-- operation_open_count&#45;&gt;package_group -->
<g id="edge4" class="edge">
<title>operation_open_count:w&#45;&gt;package_group:e</title>
<path fill="none" stroke="#000000" d="M280.3005,-773.3063C250.6415,-771.5001 235.203,-762.8946 214,-735.7 156.091,-661.4267 267.6805,-527.7 173.5,-527.7"/>
<polygon fill="#000000" stroke="#000000" points="287.0029,-773.4857 294.9036,-777.2987 291.0014,-773.5929 295,-773.7 295,-773.7 295,-773.7 291.0014,-773.5929 295.0964,-770.1013 287.0029,-773.4857 287.0029,-773.4857"/>
<ellipse fill="none" stroke="#000000" cx="283.804" cy="-773.4" rx="3.2" ry="3.2"/>
</g>
<!-- package_export_config -->
<g id="node6" class="node">
<title>package_export_config</title>
<g id="a_node6"><a xlink:href="../../tables/package_export_config.html" xlink:title="package_export_config" target="_top">
<polygon fill="#ffffff" stroke="transparent" points="292.5,-664.2 292.5,-725.2 465.5,-725.2 465.5,-664.2 292.5,-664.2"/>
<polygon fill="#f5f5f5" stroke="transparent" points="293,-701.7 293,-724.7 466,-724.7 466,-701.7 293,-701.7"/>
<polygon fill="none" stroke="#000000" points="293,-701.7 293,-724.7 466,-724.7 466,-701.7 293,-701.7"/>
<text text-anchor="start" x="298" y="-710.3" font-family="Helvetica,sans-Serif" font-weight="bold" font-size="11.00" fill="#000000">package_export_config</text>
<text text-anchor="start" x="431.5219" y="-709.8" font-family="Helvetica,sans-Serif" font-size="11.00" fill="#000000">[table]</text>
<polygon fill="none" stroke="#000000" points="293,-682.7 293,-701.7 466,-701.7 466,-682.7 293,-682.7"/>
<text text-anchor="start" x="296" y="-688.8" font-family="Helvetica,sans-Serif" font-size="11.00" fill="#000000">...</text>
<polygon fill="#ffffff" stroke="transparent" points="293,-663.7 293,-682.7 378,-682.7 378,-663.7 293,-663.7"/>
<polygon fill="none" stroke="#000000" points="293,-663.7 293,-682.7 378,-682.7 378,-663.7 293,-663.7"/>
<text text-anchor="start" x="296" y="-669.8" font-family="Helvetica,sans-Serif" font-size="11.00" fill="#000000">&lt; 1</text>
<polygon fill="#ffffff" stroke="transparent" points="378,-663.7 378,-682.7 422,-682.7 422,-663.7 378,-663.7"/>
<polygon fill="none" stroke="#000000" points="378,-663.7 378,-682.7 422,-682.7 422,-663.7 378,-663.7"/>
<text text-anchor="start" x="412.8862" y="-669.8" font-family="Helvetica,sans-Serif" font-size="11.00" fill="#000000"> &#160;</text>
<polygon fill="#ffffff" stroke="transparent" points="422,-663.7 422,-682.7 466,-682.7 466,-663.7 422,-663.7"/>
<polygon fill="none" stroke="#000000" points="422,-663.7 422,-682.7 466,-682.7 466,-663.7 422,-663.7"/>
<text text-anchor="start" x="456.8862" y="-669.8" font-family="Helvetica,sans-Serif" font-size="11.00" fill="#000000"> &#160;</text>
</a>
</g>
</g>
<!-- package_export_config&#45;&gt;package_group -->
<g id="edge5" class="edge">
<title>package_export_config:w&#45;&gt;package_group:e</title>
<path fill="none" stroke="#000000" d="M282.2537,-691.442C251.1108,-689.8177 237.0953,-680.207 214,-653.7 175.3588,-609.3507 232.3218,-527.7 173.5,-527.7"/>
<polygon fill="#000000" stroke="#000000" points="292.2963,-687.6819 292.1042,-695.6796 290.5046,-695.6412 290.6967,-687.6435 292.2963,-687.6819"/>
<polyline fill="none" stroke="#000000" points="293,-691.7 289.0012,-691.6039 "/>
<ellipse fill="none" stroke="#000000" cx="285.8021" cy="-691.5271" rx="3.2" ry="3.2"/>
</g>
<!-- package_member_role -->
<g id="node7" class="node">
<title>package_member_role</title>
<g id="a_node7"><a xlink:href="../../tables/package_member_role.html" xlink:title="package_member_role" target="_top">
<polygon fill="#ffffff" stroke="transparent" points="294.5,-582.2 294.5,-643.2 463.5,-643.2 463.5,-582.2 294.5,-582.2"/>
<polygon fill="#f5f5f5" stroke="transparent" points="295,-619.7 295,-642.7 464,-642.7 464,-619.7 295,-619.7"/>
<polygon fill="none" stroke="#000000" points="295,-619.7 295,-642.7 464,-642.7 464,-619.7 295,-619.7"/>
<text text-anchor="start" x="300" y="-628.3" font-family="Helvetica,sans-Serif" font-weight="bold" font-size="11.00" fill="#000000">package_member_role</text>
<text text-anchor="start" x="429.5219" y="-627.8" font-family="Helvetica,sans-Serif" font-size="11.00" fill="#000000">[table]</text>
<polygon fill="none" stroke="#000000" points="295,-600.7 295,-619.7 464,-619.7 464,-600.7 295,-600.7"/>
<text text-anchor="start" x="298" y="-606.8" font-family="Helvetica,sans-Serif" font-size="11.00" fill="#000000">...</text>
<polygon fill="#ffffff" stroke="transparent" points="295,-581.7 295,-600.7 378,-600.7 378,-581.7 295,-581.7"/>
<polygon fill="none" stroke="#000000" points="295,-581.7 295,-600.7 378,-600.7 378,-581.7 295,-581.7"/>
<text text-anchor="start" x="298" y="-587.8" font-family="Helvetica,sans-Serif" font-size="11.00" fill="#000000">&lt; 1</text>
<polygon fill="#ffffff" stroke="transparent" points="378,-581.7 378,-600.7 421,-600.7 421,-581.7 378,-581.7"/>
<polygon fill="none" stroke="#000000" points="378,-581.7 378,-600.7 421,-600.7 421,-581.7 378,-581.7"/>
<text text-anchor="start" x="411.8862" y="-587.8" font-family="Helvetica,sans-Serif" font-size="11.00" fill="#000000"> &#160;</text>
<polygon fill="#ffffff" stroke="transparent" points="421,-581.7 421,-600.7 464,-600.7 464,-581.7 421,-581.7"/>
<polygon fill="none" stroke="#000000" points="421,-581.7 421,-600.7 464,-600.7 464,-581.7 421,-581.7"/>
<text text-anchor="start" x="454.8862" y="-587.8" font-family="Helvetica,sans-Serif" font-size="11.00" fill="#000000"> &#160;</text>
</a>
</g>
</g>
<!-- package_member_role&#45;&gt;package_group -->
<g id="edge6" class="edge">
<title>package_member_role:w&#45;&gt;package_group:e</title>
<path fill="none" stroke="#000000" d="M280.2693,-608.9017C252.3003,-605.5704 241.6829,-591.9997 214,-571.7 192.5665,-555.9829 200.0786,-527.7 173.5,-527.7"/>
<polygon fill="#000000" stroke="#000000" points="287.0117,-609.267 294.8052,-613.2947 291.0059,-609.4835 295,-609.7 295,-609.7 295,-609.7 291.0059,-609.4835 295.1948,-606.1053 287.0117,-609.267 287.0117,-609.267"/>
<ellipse fill="none" stroke="#000000" cx="283.8164" cy="-609.0938" rx="3.2" ry="3.2"/>
</g>
<!-- package_service -->
<g id="node8" class="node">
<title>package_service</title>
<g id="a_node8"><a xlink:href="../../tables/package_service.html" xlink:title="package_service" target="_top">
<polygon fill="#ffffff" stroke="transparent" points="311.5,-500.2 311.5,-561.2 446.5,-561.2 446.5,-500.2 311.5,-500.2"/>
<polygon fill="#f5f5f5" stroke="transparent" points="312,-537.7 312,-560.7 447,-560.7 447,-537.7 312,-537.7"/>
<polygon fill="none" stroke="#000000" points="312,-537.7 312,-560.7 447,-560.7 447,-537.7 312,-537.7"/>
<text text-anchor="start" x="317" y="-546.3" font-family="Helvetica,sans-Serif" font-weight="bold" font-size="11.00" fill="#000000">package_service</text>
<text text-anchor="start" x="412.5219" y="-545.8" font-family="Helvetica,sans-Serif" font-size="11.00" fill="#000000">[table]</text>
<polygon fill="none" stroke="#000000" points="312,-518.7 312,-537.7 447,-537.7 447,-518.7 312,-518.7"/>
<text text-anchor="start" x="315" y="-524.8" font-family="Helvetica,sans-Serif" font-size="11.00" fill="#000000">...</text>
<polygon fill="#ffffff" stroke="transparent" points="312,-499.7 312,-518.7 378,-518.7 378,-499.7 312,-499.7"/>
<polygon fill="none" stroke="#000000" points="312,-499.7 312,-518.7 378,-518.7 378,-499.7 312,-499.7"/>
<text text-anchor="start" x="315" y="-505.8" font-family="Helvetica,sans-Serif" font-size="11.00" fill="#000000">&lt; 2</text>
<polygon fill="#ffffff" stroke="transparent" points="378,-499.7 378,-518.7 412,-518.7 412,-499.7 378,-499.7"/>
<polygon fill="none" stroke="#000000" points="378,-499.7 378,-518.7 412,-518.7 412,-499.7 378,-499.7"/>
<text text-anchor="start" x="402.8862" y="-505.8" font-family="Helvetica,sans-Serif" font-size="11.00" fill="#000000"> &#160;</text>
<polygon fill="#ffffff" stroke="transparent" points="412,-499.7 412,-518.7 447,-518.7 447,-499.7 412,-499.7"/>
<polygon fill="none" stroke="#000000" points="412,-499.7 412,-518.7 447,-518.7 447,-499.7 412,-499.7"/>
<text text-anchor="start" x="437.8862" y="-505.8" font-family="Helvetica,sans-Serif" font-size="11.00" fill="#000000"> &#160;</text>
</a>
</g>
</g>
<!-- package_service&#45;&gt;package_group -->
<g id="edge7" class="edge">
<title>package_service:w&#45;&gt;package_group:e</title>
<path fill="none" stroke="#000000" d="M297.4131,-526.3152C247.534,-521.7423 229.8859,-522.2039 173.5,-527.7"/>
<polygon fill="#000000" stroke="#000000" points="304.0358,-526.9439 311.6598,-531.2839 308.0179,-527.3219 312,-527.7 312,-527.7 312,-527.7 308.0179,-527.3219 312.3402,-524.1161 304.0358,-526.9439 304.0358,-526.9439"/>
<ellipse fill="none" stroke="#000000" cx="300.8501" cy="-526.6415" rx="3.2" ry="3.2"/>
</g>
<!-- package_service&#45;&gt;package_group -->
<g id="edge8" class="edge">
<title>package_service:w&#45;&gt;package_group:e</title>
<path fill="none" stroke="#000000" d="M297.4131,-529.3156C247.534,-534.6506 229.8859,-534.1121 173.5,-527.7"/>
<polygon fill="#000000" stroke="#000000" points="304.0486,-528.5807 312.3963,-531.2781 308.0243,-528.1403 312,-527.7 312,-527.7 312,-527.7 308.0243,-528.1403 311.6037,-524.1219 304.0486,-528.5807 304.0486,-528.5807"/>
<ellipse fill="none" stroke="#000000" cx="300.8681" cy="-528.933" rx="3.2" ry="3.2"/>
</g>
<!-- published_data -->
<g id="node9" class="node">
<title>published_data</title>
<g id="a_node9"><a xlink:href="../../tables/published_data.html" xlink:title="published_data" target="_top">
<polygon fill="#ffffff" stroke="transparent" points="315.5,-418.2 315.5,-479.2 442.5,-479.2 442.5,-418.2 315.5,-418.2"/>
<polygon fill="#f5f5f5" stroke="transparent" points="316,-455.7 316,-478.7 443,-478.7 443,-455.7 316,-455.7"/>
<polygon fill="none" stroke="#000000" points="316,-455.7 316,-478.7 443,-478.7 443,-455.7 316,-455.7"/>
<text text-anchor="start" x="321" y="-464.3" font-family="Helvetica,sans-Serif" font-weight="bold" font-size="11.00" fill="#000000">published_data</text>
<text text-anchor="start" x="408.5219" y="-463.8" font-family="Helvetica,sans-Serif" font-size="11.00" fill="#000000">[table]</text>
<polygon fill="none" stroke="#000000" points="316,-436.7 316,-455.7 443,-455.7 443,-436.7 316,-436.7"/>
<text text-anchor="start" x="319" y="-442.8" font-family="Helvetica,sans-Serif" font-size="11.00" fill="#000000">...</text>
<polygon fill="#ffffff" stroke="transparent" points="316,-417.7 316,-436.7 373,-436.7 373,-417.7 316,-417.7"/>
<polygon fill="none" stroke="#000000" points="316,-417.7 316,-436.7 373,-436.7 373,-417.7 316,-417.7"/>
<text text-anchor="start" x="319" y="-423.8" font-family="Helvetica,sans-Serif" font-size="11.00" fill="#000000">&lt; 1</text>
<polygon fill="#ffffff" stroke="transparent" points="373,-417.7 373,-436.7 403,-436.7 403,-417.7 373,-417.7"/>
<polygon fill="none" stroke="#000000" points="373,-417.7 373,-436.7 403,-436.7 403,-417.7 373,-417.7"/>
<text text-anchor="start" x="393.8862" y="-423.8" font-family="Helvetica,sans-Serif" font-size="11.00" fill="#000000"> &#160;</text>
<polygon fill="#ffffff" stroke="transparent" points="403,-417.7 403,-436.7 443,-436.7 443,-417.7 403,-417.7"/>
<polygon fill="none" stroke="#000000" points="403,-417.7 403,-436.7 443,-436.7 443,-417.7 403,-417.7"/>
<text text-anchor="start" x="424.4053" y="-423.8" font-family="Helvetica,sans-Serif" font-size="11.00" fill="#000000">2 &gt;</text>
</a>
</g>
</g>
<!-- published_data&#45;&gt;package_group -->
<g id="edge9" class="edge">
<title>published_data:w&#45;&gt;package_group:e</title>
<path fill="none" stroke="#000000" d="M301.5679,-446.2569C263.903,-449.3833 250.9318,-465.4818 214,-489.7 193.3594,-503.2351 198.1827,-527.7 173.5,-527.7"/>
<polygon fill="#000000" stroke="#000000" points="308.0059,-446.0085 316.1388,-449.2973 312.003,-445.8543 316,-445.7 316,-445.7 316,-445.7 312.003,-445.8543 315.8612,-442.1027 308.0059,-446.0085 308.0059,-446.0085"/>
<ellipse fill="none" stroke="#000000" cx="304.8083" cy="-446.1319" rx="3.2" ry="3.2"/>
</g>
<!-- published_document_open_count -->
<g id="node10" class="node">
<title>published_document_open_count</title>
<g id="a_node10"><a xlink:href="../../tables/published_document_open_count.html" xlink:title="published_document_open_count" target="_top">
<polygon fill="#ffffff" stroke="transparent" points="262,-336.2 262,-397.2 496,-397.2 496,-336.2 262,-336.2"/>
<polygon fill="#f5f5f5" stroke="transparent" points="262,-373.7 262,-396.7 496,-396.7 496,-373.7 262,-373.7"/>
<polygon fill="none" stroke="#000000" points="262,-373.7 262,-396.7 496,-396.7 496,-373.7 262,-373.7"/>
<text text-anchor="start" x="267" y="-382.3" font-family="Helvetica,sans-Serif" font-weight="bold" font-size="11.00" fill="#000000">published_document_open_count</text>
<text text-anchor="start" x="461.5219" y="-381.8" font-family="Helvetica,sans-Serif" font-size="11.00" fill="#000000">[table]</text>
<polygon fill="none" stroke="#000000" points="262,-354.7 262,-373.7 496,-373.7 496,-354.7 262,-354.7"/>
<text text-anchor="start" x="265" y="-360.8" font-family="Helvetica,sans-Serif" font-size="11.00" fill="#000000">...</text>
<polygon fill="#ffffff" stroke="transparent" points="262,-335.7 262,-354.7 377,-354.7 377,-335.7 262,-335.7"/>
<polygon fill="none" stroke="#000000" points="262,-335.7 262,-354.7 377,-354.7 377,-335.7 262,-335.7"/>
<text text-anchor="start" x="265" y="-341.8" font-family="Helvetica,sans-Serif" font-size="11.00" fill="#000000">&lt; 1</text>
<polygon fill="#ffffff" stroke="transparent" points="377,-335.7 377,-354.7 436,-354.7 436,-335.7 377,-335.7"/>
<polygon fill="none" stroke="#000000" points="377,-335.7 377,-354.7 436,-354.7 436,-335.7 377,-335.7"/>
<text text-anchor="start" x="426.8862" y="-341.8" font-family="Helvetica,sans-Serif" font-size="11.00" fill="#000000"> &#160;</text>
<polygon fill="#ffffff" stroke="transparent" points="436,-335.7 436,-354.7 496,-354.7 496,-335.7 436,-335.7"/>
<polygon fill="none" stroke="#000000" points="436,-335.7 436,-354.7 496,-354.7 496,-335.7 436,-335.7"/>
<text text-anchor="start" x="486.8862" y="-341.8" font-family="Helvetica,sans-Serif" font-size="11.00" fill="#000000"> &#160;</text>
</a>
</g>
</g>
<!-- published_document_open_count&#45;&gt;package_group -->
<g id="edge10" class="edge">
<title>published_document_open_count:w&#45;&gt;package_group:e</title>
<path fill="none" stroke="#000000" d="M247.6962,-365.8464C231.3054,-371.5859 226.7071,-388.1847 214,-407.7 183.2856,-454.8706 229.7889,-527.7 173.5,-527.7"/>
<polygon fill="#000000" stroke="#000000" points="254.0886,-364.8872 262.5342,-367.2601 258.0443,-364.2936 262,-363.7 262,-363.7 262,-363.7 258.0443,-364.2936 261.4658,-360.1399 254.0886,-364.8872 254.0886,-364.8872"/>
<ellipse fill="none" stroke="#000000" cx="250.924" cy="-365.3621" rx="3.2" ry="3.2"/>
</g>
<!-- published_version -->
<g id="node11" class="node">
<title>published_version</title>
<g id="a_node11"><a xlink:href="../../tables/published_version.html" xlink:title="published_version" target="_top">
<polygon fill="#ffffff" stroke="transparent" points="306.5,-254.2 306.5,-315.2 451.5,-315.2 451.5,-254.2 306.5,-254.2"/>
<polygon fill="#f5f5f5" stroke="transparent" points="307,-291.7 307,-314.7 452,-314.7 452,-291.7 307,-291.7"/>
<polygon fill="none" stroke="#000000" points="307,-291.7 307,-314.7 452,-314.7 452,-291.7 307,-291.7"/>
<text text-anchor="start" x="312" y="-300.3" font-family="Helvetica,sans-Serif" font-weight="bold" font-size="11.00" fill="#000000">published_version</text>
<text text-anchor="start" x="417.5219" y="-299.8" font-family="Helvetica,sans-Serif" font-size="11.00" fill="#000000">[table]</text>
<polygon fill="none" stroke="#000000" points="307,-272.7 307,-291.7 452,-291.7 452,-272.7 307,-272.7"/>
<text text-anchor="start" x="310" y="-278.8" font-family="Helvetica,sans-Serif" font-size="11.00" fill="#000000">...</text>
<polygon fill="#ffffff" stroke="transparent" points="307,-253.7 307,-272.7 370,-272.7 370,-253.7 307,-253.7"/>
<polygon fill="none" stroke="#000000" points="307,-253.7 307,-272.7 370,-272.7 370,-253.7 307,-253.7"/>
<text text-anchor="start" x="310" y="-259.8" font-family="Helvetica,sans-Serif" font-size="11.00" fill="#000000">&lt; 1</text>
<polygon fill="#ffffff" stroke="transparent" points="370,-253.7 370,-272.7 403,-272.7 403,-253.7 370,-253.7"/>
<polygon fill="none" stroke="#000000" points="370,-253.7 370,-272.7 403,-272.7 403,-253.7 370,-253.7"/>
<text text-anchor="start" x="393.8862" y="-259.8" font-family="Helvetica,sans-Serif" font-size="11.00" fill="#000000"> &#160;</text>
<polygon fill="#ffffff" stroke="transparent" points="403,-253.7 403,-272.7 452,-272.7 452,-253.7 403,-253.7"/>
<polygon fill="none" stroke="#000000" points="403,-253.7 403,-272.7 452,-272.7 452,-253.7 403,-253.7"/>
<text text-anchor="start" x="427.2904" y="-259.8" font-family="Helvetica,sans-Serif" font-size="11.00" fill="#000000">21 &gt;</text>
</a>
</g>
</g>
<!-- published_version&#45;&gt;package_group -->
<g id="edge11" class="edge">
<title>published_version:w&#45;&gt;package_group:e</title>
<path fill="none" stroke="#000000" d="M292.4329,-282.0361C256.8269,-283.8661 238.9675,-293.7531 214,-325.7 157.6163,-397.8452 265.0645,-527.7 173.5,-527.7"/>
<polygon fill="#000000" stroke="#000000" points="299.0021,-281.8846 307.0831,-285.299 303.0011,-281.7923 307,-281.7 307,-281.7 307,-281.7 303.0011,-281.7923 306.9169,-278.101 299.0021,-281.8846 299.0021,-281.8846"/>
<ellipse fill="none" stroke="#000000" cx="295.803" cy="-281.9584" rx="3.2" ry="3.2"/>
</g>
<!-- published_version_open_count -->
<g id="node12" class="node">
<title>published_version_open_count</title>
<g id="a_node12"><a xlink:href="../../tables/published_version_open_count.html" xlink:title="published_version_open_count" target="_top">
<polygon fill="#ffffff" stroke="transparent" points="222,-120.7 222,-232.7 536,-232.7 536,-120.7 222,-120.7"/>
<polygon fill="#f5f5f5" stroke="transparent" points="224,-207.7 224,-230.7 534,-230.7 534,-207.7 224,-207.7"/>
<polygon fill="none" stroke="#000000" points="224,-207.7 224,-230.7 534,-230.7 534,-207.7 224,-207.7"/>
<text text-anchor="start" x="229" y="-216.3" font-family="Helvetica,sans-Serif" font-weight="bold" font-size="11.00" fill="#000000">published_version_open_count</text>
<text text-anchor="start" x="499.0437" y="-215.8" font-family="Helvetica,sans-Serif" font-size="11.00" fill="#000000">[table]</text>
<polygon fill="none" stroke="#000000" points="224,-185.7 224,-207.7 425,-207.7 425,-185.7 224,-185.7"/>
<image xlink:href="../../images/primaryKeys.png" width="11px" height="12px" preserveAspectRatio="xMinYMin meet" x="229" y="-202.7"/>
<text text-anchor="start" x="244" y="-192.8" font-family="Helvetica,sans-Serif" font-size="11.00" fill="#000000">package_id</text>
<polygon fill="none" stroke="#000000" points="425,-185.7 425,-207.7 534,-207.7 534,-185.7 425,-185.7"/>
<text text-anchor="start" x="427.5344" y="-193.4" font-family="Helvetica,sans-Serif" font-size="11.00" fill="#000000">varchar[2147483647]</text>
<polygon fill="none" stroke="#000000" points="224,-163.7 224,-185.7 425,-185.7 425,-163.7 224,-163.7"/>
<image xlink:href="../../images/primaryKeys.png" width="11px" height="12px" preserveAspectRatio="xMinYMin meet" x="229" y="-180.7"/>
<text text-anchor="start" x="244" y="-170.8" font-family="Helvetica,sans-Serif" font-size="11.00" fill="#000000">version</text>
<polygon fill="none" stroke="#000000" points="425,-163.7 425,-185.7 534,-185.7 534,-163.7 425,-163.7"/>
<text text-anchor="start" x="427.5344" y="-171.4" font-family="Helvetica,sans-Serif" font-size="11.00" fill="#000000">varchar[2147483647]</text>
<polygon fill="none" stroke="#000000" points="224,-141.7 224,-163.7 425,-163.7 425,-141.7 224,-141.7"/>
<text text-anchor="start" x="244" y="-148.8" font-family="Helvetica,sans-Serif" font-size="11.00" fill="#000000">open_count</text>
<polygon fill="none" stroke="#000000" points="425,-141.7 425,-163.7 534,-163.7 534,-141.7 425,-141.7"/>
<text text-anchor="start" x="428" y="-149.4" font-family="Helvetica,sans-Serif" font-size="11.00" fill="#000000">int8[19]</text>
<polygon fill="#ffffff" stroke="transparent" points="224,-122.7 224,-141.7 329,-141.7 329,-122.7 224,-122.7"/>
<polygon fill="none" stroke="#000000" points="224,-122.7 224,-141.7 329,-141.7 329,-122.7 224,-122.7"/>
<text text-anchor="start" x="227" y="-128.8" font-family="Helvetica,sans-Serif" font-size="11.00" fill="#000000">&lt; 1</text>
<polygon fill="#ffffff" stroke="transparent" points="329,-122.7 329,-141.7 425,-141.7 425,-122.7 329,-122.7"/>
<polygon fill="none" stroke="#000000" points="329,-122.7 329,-141.7 425,-141.7 425,-122.7 329,-122.7"/>
<text text-anchor="start" x="415.8862" y="-128.8" font-family="Helvetica,sans-Serif" font-size="11.00" fill="#000000"> &#160;</text>
<polygon fill="#ffffff" stroke="transparent" points="425,-122.7 425,-141.7 534,-141.7 534,-122.7 425,-122.7"/>
<polygon fill="none" stroke="#000000" points="425,-122.7 425,-141.7 534,-141.7 534,-122.7 425,-122.7"/>
<text text-anchor="start" x="515.4053" y="-128.8" font-family="Helvetica,sans-Serif" font-size="11.00" fill="#000000">0 &gt;</text>
<polygon fill="none" stroke="#000000" stroke-width="2" points="223,-121.7 223,-231.7 535,-231.7 535,-121.7 223,-121.7"/>
</a>
</g>
</g>
<!-- published_version_open_count&#45;&gt;package_group -->
<g id="edge12" class="edge">
<title>published_version_open_count:w&#45;&gt;package_group:e</title>
<path fill="none" stroke="#000000" d="M210.4445,-201.6359C162.9007,-242.8113 242.5297,-527.7 173.5,-527.7"/>
<polygon fill="#000000" stroke="#000000" points="216.4828,-199.4372 225.2318,-200.0827 220.2414,-198.0686 224,-196.7 224,-196.7 224,-196.7 220.2414,-198.0686 222.7682,-193.3173 216.4828,-199.4372 216.4828,-199.4372"/>
<ellipse fill="none" stroke="#000000" cx="213.476" cy="-200.5321" rx="3.2" ry="3.2"/>
</g>
<!-- shared_url_info -->
<g id="node13" class="node">
<title>shared_url_info</title>
<g id="a_node13"><a xlink:href="../../tables/shared_url_info.html" xlink:title="shared_url_info" target="_top">
<polygon fill="#ffffff" stroke="transparent" points="314.5,-38.2 314.5,-99.2 443.5,-99.2 443.5,-38.2 314.5,-38.2"/>
<polygon fill="#f5f5f5" stroke="transparent" points="315,-75.7 315,-98.7 444,-98.7 444,-75.7 315,-75.7"/>
<polygon fill="none" stroke="#000000" points="315,-75.7 315,-98.7 444,-98.7 444,-75.7 315,-75.7"/>
<text text-anchor="start" x="320" y="-84.3" font-family="Helvetica,sans-Serif" font-weight="bold" font-size="11.00" fill="#000000">shared_url_info</text>
<text text-anchor="start" x="409.5219" y="-83.8" font-family="Helvetica,sans-Serif" font-size="11.00" fill="#000000">[table]</text>
<polygon fill="none" stroke="#000000" points="315,-56.7 315,-75.7 444,-75.7 444,-56.7 315,-56.7"/>
<text text-anchor="start" x="318" y="-62.8" font-family="Helvetica,sans-Serif" font-size="11.00" fill="#000000">...</text>
<polygon fill="#ffffff" stroke="transparent" points="315,-37.7 315,-56.7 378,-56.7 378,-37.7 315,-37.7"/>
<polygon fill="none" stroke="#000000" points="315,-37.7 315,-56.7 378,-56.7 378,-37.7 315,-37.7"/>
<text text-anchor="start" x="318" y="-43.8" font-family="Helvetica,sans-Serif" font-size="11.00" fill="#000000">&lt; 1</text>
<polygon fill="#ffffff" stroke="transparent" points="378,-37.7 378,-56.7 411,-56.7 411,-37.7 378,-37.7"/>
<polygon fill="none" stroke="#000000" points="378,-37.7 378,-56.7 411,-56.7 411,-37.7 378,-37.7"/>
<text text-anchor="start" x="401.8862" y="-43.8" font-family="Helvetica,sans-Serif" font-size="11.00" fill="#000000"> &#160;</text>
<polygon fill="#ffffff" stroke="transparent" points="411,-37.7 411,-56.7 444,-56.7 444,-37.7 411,-37.7"/>
<polygon fill="none" stroke="#000000" points="411,-37.7 411,-56.7 444,-56.7 444,-37.7 411,-37.7"/>
<text text-anchor="start" x="434.8862" y="-43.8" font-family="Helvetica,sans-Serif" font-size="11.00" fill="#000000"> &#160;</text>
</a>
</g>
</g>
<!-- shared_url_info&#45;&gt;package_group -->
<g id="edge13" class="edge">
<title>shared_url_info:w&#45;&gt;package_group:e</title>
<path fill="none" stroke="#000000" d="M300.5399,-65.8976C261.0078,-67.1334 239.7496,-74.9527 214,-110.7 159.5836,-186.2444 266.6027,-527.7 173.5,-527.7"/>
<polygon fill="#000000" stroke="#000000" points="307.0007,-65.8094 315.0492,-69.2997 311.0004,-65.7547 315,-65.7 315,-65.7 315,-65.7 311.0004,-65.7547 314.9508,-62.1003 307.0007,-65.8094 307.0007,-65.8094"/>
<ellipse fill="none" stroke="#000000" cx="303.801" cy="-65.8531" rx="3.2" ry="3.2"/>
</g>
</g>
</svg>
