<?xml version="1.0" encoding="UTF-8" standalone="no"?>
<!DOCTYPE svg PUBLIC "-//W3C//DTD SVG 1.1//EN"
 "http://www.w3.org/Graphics/SVG/1.1/DTD/svg11.dtd">
<!-- Generated by graphviz version 2.40.1 (20161225.0304)
 -->
<!-- Title: twoDegreesRelationshipsDiagram Pages: 1 -->
<svg width="695pt" height="606pt"
 viewBox="0.00 0.00 695.00 606.20" xmlns="http://www.w3.org/2000/svg" xmlns:xlink="http://www.w3.org/1999/xlink">
<g id="graph0" class="graph" transform="scale(1 1) rotate(0) translate(4 602.2)">
<title>twoDegreesRelationshipsDiagram</title>
<polygon fill="#ffffff" stroke="transparent" points="-4,4 -4,-602.2 691,-602.2 691,4 -4,4"/>
<text text-anchor="middle" x="72.4936" y="-7.3" font-family="Helvetica,sans-Serif" font-size="11.00" fill="#000000">Generated by SchemaSpy</text>
<!-- ai_chat -->
<g id="node1" class="node">
<title>ai_chat</title>
<g id="a_node1"><a xlink:href="../../tables/ai_chat.html" xlink:title="ai_chat" target="_top">
<polygon fill="#ffffff" stroke="transparent" points="302,-145.7 302,-294.7 492,-294.7 492,-145.7 302,-145.7"/>
<polygon fill="#f5f5f5" stroke="transparent" points="302,-271.2 302,-294.2 492,-294.2 492,-271.2 302,-271.2"/>
<polygon fill="none" stroke="#000000" points="302,-271.2 302,-294.2 492,-294.2 492,-271.2 302,-271.2"/>
<text text-anchor="start" x="307" y="-279.8" font-family="Helvetica,sans-Serif" font-weight="bold" font-size="11.00" fill="#000000">ai_chat</text>
<text text-anchor="start" x="457.0437" y="-279.3" font-family="Helvetica,sans-Serif" font-size="11.00" fill="#000000">[table]</text>
<polygon fill="none" stroke="#000000" points="302,-249.2 302,-271.2 492,-271.2 492,-249.2 302,-249.2"/>
<image xlink:href="../../images/primaryKeys.png" width="11px" height="12px" preserveAspectRatio="xMinYMin meet" x="307" y="-266.2"/>
<text text-anchor="start" x="322" y="-256.3" font-family="Helvetica,sans-Serif" font-size="11.00" fill="#000000">id</text>
<polygon fill="#ffffff" stroke="transparent" points="302,-227.2 302,-249.2 492,-249.2 492,-227.2 302,-227.2"/>
<polygon fill="none" stroke="#000000" points="302,-227.2 302,-249.2 492,-249.2 492,-227.2 302,-227.2"/>
<image xlink:href="../../images/foreignKeys.png" width="11px" height="12px" preserveAspectRatio="xMinYMin meet" x="307" y="-244.2"/>
<text text-anchor="start" x="322" y="-234.3" font-family="Helvetica,sans-Serif" font-size="11.00" fill="#000000">user_id</text>
<polygon fill="#ffffff" stroke="transparent" points="302,-205.2 302,-227.2 492,-227.2 492,-205.2 302,-205.2"/>
<polygon fill="none" stroke="#000000" points="302,-205.2 302,-227.2 492,-227.2 492,-205.2 302,-205.2"/>
<text text-anchor="start" x="322" y="-212.3" font-family="Helvetica,sans-Serif" font-size="11.00" fill="#000000">pinned</text>
<polygon fill="#ffffff" stroke="transparent" points="302,-183.2 302,-205.2 492,-205.2 492,-183.2 302,-183.2"/>
<polygon fill="none" stroke="#000000" points="302,-183.2 302,-205.2 492,-205.2 492,-183.2 302,-183.2"/>
<text text-anchor="start" x="322" y="-190.3" font-family="Helvetica,sans-Serif" font-size="11.00" fill="#000000">last_message_at</text>
<polygon fill="none" stroke="#000000" points="302,-164.2 302,-183.2 492,-183.2 492,-164.2 302,-164.2"/>
<text text-anchor="start" x="305" y="-170.3" font-family="Helvetica,sans-Serif" font-size="11.00" fill="#000000">...</text>
<polygon fill="#ffffff" stroke="transparent" points="302,-145.2 302,-164.2 391,-164.2 391,-145.2 302,-145.2"/>
<polygon fill="none" stroke="#000000" points="302,-145.2 302,-164.2 391,-164.2 391,-145.2 302,-145.2"/>
<text text-anchor="start" x="305" y="-151.3" font-family="Helvetica,sans-Serif" font-size="11.00" fill="#000000">&lt; 1</text>
<polygon fill="#ffffff" stroke="transparent" points="391,-145.2 391,-164.2 437,-164.2 437,-145.2 391,-145.2"/>
<polygon fill="none" stroke="#000000" points="391,-145.2 391,-164.2 437,-164.2 437,-145.2 391,-145.2"/>
<text text-anchor="start" x="427.8862" y="-151.3" font-family="Helvetica,sans-Serif" font-size="11.00" fill="#000000"> &#160;</text>
<polygon fill="#ffffff" stroke="transparent" points="437,-145.2 437,-164.2 492,-164.2 492,-145.2 437,-145.2"/>
<polygon fill="none" stroke="#000000" points="437,-145.2 437,-164.2 492,-164.2 492,-145.2 437,-145.2"/>
<text text-anchor="start" x="473.4053" y="-151.3" font-family="Helvetica,sans-Serif" font-size="11.00" fill="#000000">1 &gt;</text>
</a>
</g>
</g>
<!-- user_data -->
<g id="node2" class="node">
<title>user_data</title>
<g id="a_node2"><a xlink:href="../../tables/user_data.html" xlink:title="user_data" target="_top">
<polygon fill="#ffffff" stroke="transparent" points="8,-183.2 8,-361.2 253,-361.2 253,-183.2 8,-183.2"/>
<polygon fill="#f5f5f5" stroke="transparent" points="10.5,-336.2 10.5,-359.2 251.5,-359.2 251.5,-336.2 10.5,-336.2"/>
<polygon fill="none" stroke="#000000" points="10.5,-336.2 10.5,-359.2 251.5,-359.2 251.5,-336.2 10.5,-336.2"/>
<text text-anchor="start" x="15.5" y="-344.8" font-family="Helvetica,sans-Serif" font-weight="bold" font-size="11.00" fill="#000000">user_data</text>
<text text-anchor="start" x="216.5437" y="-344.3" font-family="Helvetica,sans-Serif" font-size="11.00" fill="#000000">[table]</text>
<polygon fill="none" stroke="#000000" points="10.5,-314.2 10.5,-336.2 142.5,-336.2 142.5,-314.2 10.5,-314.2"/>
<image xlink:href="../../images/primaryKeys.png" width="11px" height="12px" preserveAspectRatio="xMinYMin meet" x="15.5" y="-331.2"/>
<text text-anchor="start" x="30.5" y="-321.3" font-family="Helvetica,sans-Serif" font-size="11.00" fill="#000000">user_id</text>
<polygon fill="none" stroke="#000000" points="142.5,-314.2 142.5,-336.2 251.5,-336.2 251.5,-314.2 142.5,-314.2"/>
<text text-anchor="start" x="145.0344" y="-321.9" font-family="Helvetica,sans-Serif" font-size="11.00" fill="#000000">varchar[2147483647]</text>
<polygon fill="#ffffff" stroke="transparent" points="10.5,-292.2 10.5,-314.2 142.5,-314.2 142.5,-292.2 10.5,-292.2"/>
<polygon fill="none" stroke="#000000" points="10.5,-292.2 10.5,-314.2 142.5,-314.2 142.5,-292.2 10.5,-292.2"/>
<text text-anchor="start" x="30.5" y="-299.3" font-family="Helvetica,sans-Serif" font-size="11.00" fill="#000000">email</text>
<polygon fill="none" stroke="#000000" points="142.5,-292.2 142.5,-314.2 251.5,-314.2 251.5,-292.2 142.5,-292.2"/>
<text text-anchor="start" x="145.0344" y="-299.9" font-family="Helvetica,sans-Serif" font-size="11.00" fill="#000000">varchar[2147483647]</text>
<polygon fill="none" stroke="#000000" points="10.5,-270.2 10.5,-292.2 142.5,-292.2 142.5,-270.2 10.5,-270.2"/>
<text text-anchor="start" x="30.5" y="-277.3" font-family="Helvetica,sans-Serif" font-size="11.00" fill="#000000">name</text>
<polygon fill="none" stroke="#000000" points="142.5,-270.2 142.5,-292.2 251.5,-292.2 251.5,-270.2 142.5,-270.2"/>
<text text-anchor="start" x="145.0344" y="-277.9" font-family="Helvetica,sans-Serif" font-size="11.00" fill="#000000">varchar[2147483647]</text>
<polygon fill="none" stroke="#000000" points="10.5,-248.2 10.5,-270.2 142.5,-270.2 142.5,-248.2 10.5,-248.2"/>
<text text-anchor="start" x="30.5" y="-255.3" font-family="Helvetica,sans-Serif" font-size="11.00" fill="#000000">avatar_url</text>
<polygon fill="none" stroke="#000000" points="142.5,-248.2 142.5,-270.2 251.5,-270.2 251.5,-248.2 142.5,-248.2"/>
<text text-anchor="start" x="145.0344" y="-255.9" font-family="Helvetica,sans-Serif" font-size="11.00" fill="#000000">varchar[2147483647]</text>
<polygon fill="none" stroke="#000000" points="10.5,-226.2 10.5,-248.2 142.5,-248.2 142.5,-226.2 10.5,-226.2"/>
<text text-anchor="start" x="30.5" y="-233.3" font-family="Helvetica,sans-Serif" font-size="11.00" fill="#000000">password</text>
<polygon fill="none" stroke="#000000" points="142.5,-226.2 142.5,-248.2 251.5,-248.2 251.5,-226.2 142.5,-226.2"/>
<text text-anchor="start" x="145.5" y="-233.9" font-family="Helvetica,sans-Serif" font-size="11.00" fill="#000000">bytea[2147483647]</text>
<polygon fill="#ffffff" stroke="transparent" points="10.5,-204.2 10.5,-226.2 142.5,-226.2 142.5,-204.2 10.5,-204.2"/>
<polygon fill="none" stroke="#000000" points="10.5,-204.2 10.5,-226.2 142.5,-226.2 142.5,-204.2 10.5,-204.2"/>
<text text-anchor="start" x="30.5" y="-211.3" font-family="Helvetica,sans-Serif" font-size="11.00" fill="#000000">private_package_id</text>
<polygon fill="none" stroke="#000000" points="142.5,-204.2 142.5,-226.2 251.5,-226.2 251.5,-204.2 142.5,-204.2"/>
<text text-anchor="start" x="145.0344" y="-211.9" font-family="Helvetica,sans-Serif" font-size="11.00" fill="#000000">varchar[2147483647]</text>
<polygon fill="#ffffff" stroke="transparent" points="10.5,-185.2 10.5,-204.2 80.5,-204.2 80.5,-185.2 10.5,-185.2"/>
<polygon fill="none" stroke="#000000" points="10.5,-185.2 10.5,-204.2 80.5,-204.2 80.5,-185.2 10.5,-185.2"/>
<text text-anchor="start" x="13.5" y="-191.3" font-family="Helvetica,sans-Serif" font-size="11.00" fill="#000000">&lt; 0</text>
<polygon fill="#ffffff" stroke="transparent" points="80.5,-185.2 80.5,-204.2 142.5,-204.2 142.5,-185.2 80.5,-185.2"/>
<polygon fill="none" stroke="#000000" points="80.5,-185.2 80.5,-204.2 142.5,-204.2 142.5,-185.2 80.5,-185.2"/>
<text text-anchor="start" x="133.3862" y="-191.3" font-family="Helvetica,sans-Serif" font-size="11.00" fill="#000000"> &#160;</text>
<polygon fill="#ffffff" stroke="transparent" points="142.5,-185.2 142.5,-204.2 251.5,-204.2 251.5,-185.2 142.5,-185.2"/>
<polygon fill="none" stroke="#000000" points="142.5,-185.2 142.5,-204.2 251.5,-204.2 251.5,-185.2 142.5,-185.2"/>
<text text-anchor="start" x="232.9053" y="-191.3" font-family="Helvetica,sans-Serif" font-size="11.00" fill="#000000">4 &gt;</text>
<polygon fill="none" stroke="#000000" stroke-width="2" points="9,-184.2 9,-360.2 252,-360.2 252,-184.2 9,-184.2"/>
</a>
</g>
</g>
<!-- ai_chat&#45;&gt;user_data -->
<g id="edge1" class="edge">
<title>ai_chat:w&#45;&gt;user_data:e</title>
<path fill="none" stroke="#000000" d="M288.2198,-242.3962C266.1537,-259.7748 290.2708,-325.2 251.5,-325.2"/>
<polygon fill="#000000" stroke="#000000" points="294.347,-240.5305 303.0487,-241.6439 298.1735,-239.3652 302,-238.2 302,-238.2 302,-238.2 298.1735,-239.3652 300.9513,-234.7561 294.347,-240.5305 294.347,-240.5305"/>
<ellipse fill="none" stroke="#000000" cx="291.2857" cy="-241.4627" rx="3.2" ry="3.2"/>
</g>
<!-- ai_chat_message -->
<g id="node3" class="node">
<title>ai_chat_message</title>
<g id="a_node3"><a xlink:href="../../tables/ai_chat_message.html" xlink:title="ai_chat_message" target="_top">
<polygon fill="#ffffff" stroke="transparent" points="541,-232.7 541,-293.7 679,-293.7 679,-232.7 541,-232.7"/>
<polygon fill="#f5f5f5" stroke="transparent" points="541,-270.2 541,-293.2 679,-293.2 679,-270.2 541,-270.2"/>
<polygon fill="none" stroke="#000000" points="541,-270.2 541,-293.2 679,-293.2 679,-270.2 541,-270.2"/>
<text text-anchor="start" x="546" y="-278.8" font-family="Helvetica,sans-Serif" font-weight="bold" font-size="11.00" fill="#000000">ai_chat_message</text>
<text text-anchor="start" x="644.5219" y="-278.3" font-family="Helvetica,sans-Serif" font-size="11.00" fill="#000000">[table]</text>
<polygon fill="none" stroke="#000000" points="541,-251.2 541,-270.2 679,-270.2 679,-251.2 541,-251.2"/>
<text text-anchor="start" x="544" y="-257.3" font-family="Helvetica,sans-Serif" font-size="11.00" fill="#000000">...</text>
<polygon fill="#ffffff" stroke="transparent" points="541,-232.2 541,-251.2 608,-251.2 608,-232.2 541,-232.2"/>
<polygon fill="none" stroke="#000000" points="541,-232.2 541,-251.2 608,-251.2 608,-232.2 541,-232.2"/>
<text text-anchor="start" x="544" y="-238.3" font-family="Helvetica,sans-Serif" font-size="11.00" fill="#000000">&lt; 1</text>
<polygon fill="#ffffff" stroke="transparent" points="608,-232.2 608,-251.2 643,-251.2 643,-232.2 608,-232.2"/>
<polygon fill="none" stroke="#000000" points="608,-232.2 608,-251.2 643,-251.2 643,-232.2 608,-232.2"/>
<text text-anchor="start" x="633.8862" y="-238.3" font-family="Helvetica,sans-Serif" font-size="11.00" fill="#000000"> &#160;</text>
<polygon fill="#ffffff" stroke="transparent" points="643,-232.2 643,-251.2 679,-251.2 679,-232.2 643,-232.2"/>
<polygon fill="none" stroke="#000000" points="643,-232.2 643,-251.2 679,-251.2 679,-232.2 643,-232.2"/>
<text text-anchor="start" x="669.8862" y="-238.3" font-family="Helvetica,sans-Serif" font-size="11.00" fill="#000000"> &#160;</text>
</a>
</g>
</g>
<!-- ai_chat_message&#45;&gt;ai_chat -->
<g id="edge2" class="edge">
<title>ai_chat_message:w&#45;&gt;ai_chat:e</title>
<path fill="none" stroke="#000000" d="M526.4909,-260.2C515.1774,-260.2 507.9931,-260.2 492,-260.2"/>
<polygon fill="#000000" stroke="#000000" points="533,-260.2001 541,-263.8 537,-260.2 541,-260.2 541,-260.2 541,-260.2 537,-260.2 541,-256.6 533,-260.2001 533,-260.2001"/>
<ellipse fill="none" stroke="#000000" cx="529.8" cy="-260.2001" rx="3.2" ry="3.2"/>
</g>
<!-- external_identity -->
<g id="node4" class="node">
<title>external_identity</title>
<g id="a_node4"><a xlink:href="../../tables/external_identity.html" xlink:title="external_identity" target="_top">
<polygon fill="#ffffff" stroke="transparent" points="330,-464.2 330,-594.2 464,-594.2 464,-464.2 330,-464.2"/>
<polygon fill="#f5f5f5" stroke="transparent" points="330,-571.2 330,-594.2 464,-594.2 464,-571.2 330,-571.2"/>
<polygon fill="none" stroke="#000000" points="330,-571.2 330,-594.2 464,-594.2 464,-571.2 330,-571.2"/>
<text text-anchor="start" x="335" y="-579.8" font-family="Helvetica,sans-Serif" font-weight="bold" font-size="11.00" fill="#000000">external_identity</text>
<text text-anchor="start" x="429.5219" y="-579.3" font-family="Helvetica,sans-Serif" font-size="11.00" fill="#000000">[table]</text>
<polygon fill="none" stroke="#000000" points="330,-549.2 330,-571.2 464,-571.2 464,-549.2 330,-549.2"/>
<image xlink:href="../../images/primaryKeys.png" width="11px" height="12px" preserveAspectRatio="xMinYMin meet" x="335" y="-566.2"/>
<text text-anchor="start" x="359" y="-556.3" font-family="Helvetica,sans-Serif" font-size="11.00" fill="#000000">provider</text>
<polygon fill="none" stroke="#000000" points="330,-527.2 330,-549.2 464,-549.2 464,-527.2 330,-527.2"/>
<image xlink:href="../../images/primaryKeys.png" width="11px" height="12px" preserveAspectRatio="xMinYMin meet" x="335" y="-544.2"/>
<text text-anchor="start" x="359" y="-534.3" font-family="Helvetica,sans-Serif" font-size="11.00" fill="#000000">external_id</text>
<polygon fill="none" stroke="#000000" points="330,-505.2 330,-527.2 464,-527.2 464,-505.2 330,-505.2"/>
<image xlink:href="../../images/foreignKeys.png" width="11px" height="12px" preserveAspectRatio="xMinYMin meet" x="335" y="-522.2"/>
<text text-anchor="start" x="359" y="-512.3" font-family="Helvetica,sans-Serif" font-size="11.00" fill="#000000">internal_id</text>
<polygon fill="none" stroke="#000000" points="330,-483.2 330,-505.2 464,-505.2 464,-483.2 330,-483.2"/>
<image xlink:href="../../images/primaryKeys.png" width="11px" height="12px" preserveAspectRatio="xMinYMin meet" x="335" y="-500.2"/>
<text text-anchor="start" x="359" y="-490.3" font-family="Helvetica,sans-Serif" font-size="11.00" fill="#000000">provider_id</text>
<polygon fill="#ffffff" stroke="transparent" points="330,-464.2 330,-483.2 395,-483.2 395,-464.2 330,-464.2"/>
<polygon fill="none" stroke="#000000" points="330,-464.2 330,-483.2 395,-483.2 395,-464.2 330,-464.2"/>
<text text-anchor="start" x="333" y="-470.3" font-family="Helvetica,sans-Serif" font-size="11.00" fill="#000000">&lt; 1</text>
<polygon fill="#ffffff" stroke="transparent" points="395,-464.2 395,-483.2 429,-483.2 429,-464.2 395,-464.2"/>
<polygon fill="none" stroke="#000000" points="395,-464.2 395,-483.2 429,-483.2 429,-464.2 395,-464.2"/>
<text text-anchor="start" x="419.8862" y="-470.3" font-family="Helvetica,sans-Serif" font-size="11.00" fill="#000000"> &#160;</text>
<polygon fill="#ffffff" stroke="transparent" points="429,-464.2 429,-483.2 464,-483.2 464,-464.2 429,-464.2"/>
<polygon fill="none" stroke="#000000" points="429,-464.2 429,-483.2 464,-483.2 464,-464.2 429,-464.2"/>
<text text-anchor="start" x="454.8862" y="-470.3" font-family="Helvetica,sans-Serif" font-size="11.00" fill="#000000"> &#160;</text>
</a>
</g>
</g>
<!-- external_identity&#45;&gt;user_data -->
<g id="edge3" class="edge">
<title>external_identity:w&#45;&gt;user_data:e</title>
<path fill="none" stroke="#000000" d="M315.4066,-514.1842C250.2214,-493.7713 337.7219,-325.2 251.5,-325.2"/>
<polygon fill="#000000" stroke="#000000" points="322.0752,-515.1053 329.5074,-519.7661 326.0376,-515.6527 330,-516.2 330,-516.2 330,-516.2 326.0376,-515.6527 330.4926,-512.6339 322.0752,-515.1053 322.0752,-515.1053"/>
<ellipse fill="none" stroke="#000000" cx="318.9053" cy="-514.6674" rx="3.2" ry="3.2"/>
</g>
<!-- favorite_packages -->
<g id="node5" class="node">
<title>favorite_packages</title>
<g id="a_node5"><a xlink:href="../../tables/favorite_packages.html" xlink:title="favorite_packages" target="_top">
<polygon fill="#ffffff" stroke="transparent" points="325.5,-38.2 325.5,-124.2 468.5,-124.2 468.5,-38.2 325.5,-38.2"/>
<polygon fill="#f5f5f5" stroke="transparent" points="326,-101.2 326,-124.2 469,-124.2 469,-101.2 326,-101.2"/>
<polygon fill="none" stroke="#000000" points="326,-101.2 326,-124.2 469,-124.2 469,-101.2 326,-101.2"/>
<text text-anchor="start" x="331" y="-109.8" font-family="Helvetica,sans-Serif" font-weight="bold" font-size="11.00" fill="#000000">favorite_packages</text>
<text text-anchor="start" x="434.5219" y="-109.3" font-family="Helvetica,sans-Serif" font-size="11.00" fill="#000000">[table]</text>
<polygon fill="none" stroke="#000000" points="326,-79.2 326,-101.2 469,-101.2 469,-79.2 326,-79.2"/>
<image xlink:href="../../images/primaryKeys.png" width="11px" height="12px" preserveAspectRatio="xMinYMin meet" x="331" y="-96.2"/>
<text text-anchor="start" x="355" y="-86.3" font-family="Helvetica,sans-Serif" font-size="11.00" fill="#000000">user_id</text>
<polygon fill="none" stroke="#000000" points="326,-57.2 326,-79.2 469,-79.2 469,-57.2 326,-57.2"/>
<image xlink:href="../../images/primaryKeys.png" width="11px" height="12px" preserveAspectRatio="xMinYMin meet" x="331" y="-74.2"/>
<text text-anchor="start" x="355" y="-64.3" font-family="Helvetica,sans-Serif" font-size="11.00" fill="#000000">package_id</text>
<polygon fill="#ffffff" stroke="transparent" points="326,-38.2 326,-57.2 396,-57.2 396,-38.2 326,-38.2"/>
<polygon fill="none" stroke="#000000" points="326,-38.2 326,-57.2 396,-57.2 396,-38.2 326,-38.2"/>
<text text-anchor="start" x="329" y="-44.3" font-family="Helvetica,sans-Serif" font-size="11.00" fill="#000000">&lt; 2</text>
<polygon fill="#ffffff" stroke="transparent" points="396,-38.2 396,-57.2 432,-57.2 432,-38.2 396,-38.2"/>
<polygon fill="none" stroke="#000000" points="396,-38.2 396,-57.2 432,-57.2 432,-38.2 396,-38.2"/>
<text text-anchor="start" x="422.8862" y="-44.3" font-family="Helvetica,sans-Serif" font-size="11.00" fill="#000000"> &#160;</text>
<polygon fill="#ffffff" stroke="transparent" points="432,-38.2 432,-57.2 469,-57.2 469,-38.2 432,-38.2"/>
<polygon fill="none" stroke="#000000" points="432,-38.2 432,-57.2 469,-57.2 469,-38.2 432,-38.2"/>
<text text-anchor="start" x="459.8862" y="-44.3" font-family="Helvetica,sans-Serif" font-size="11.00" fill="#000000"> &#160;</text>
</a>
</g>
</g>
<!-- favorite_packages&#45;&gt;user_data -->
<g id="edge5" class="edge">
<title>favorite_packages:w&#45;&gt;user_data:e</title>
<path fill="none" stroke="#000000" d="M312.0511,-94.0788C301.9406,-101.481 301.4901,-118.387 294,-135.2 258.7869,-214.2423 338.0312,-325.2 251.5,-325.2"/>
<polygon fill="#000000" stroke="#000000" points="318.2924,-92.3433 326.9645,-93.6684 322.1462,-91.2717 326,-90.2 326,-90.2 326,-90.2 322.1462,-91.2717 325.0355,-86.7316 318.2924,-92.3433 318.2924,-92.3433"/>
<ellipse fill="none" stroke="#000000" cx="315.2094" cy="-93.2006" rx="3.2" ry="3.2"/>
</g>
<!-- package_group -->
<g id="node6" class="node">
<title>package_group</title>
<g id="a_node6"><a xlink:href="../../tables/package_group.html" xlink:title="package_group" target="_top">
<polygon fill="#ffffff" stroke="transparent" points="67,-40.7 67,-101.7 194,-101.7 194,-40.7 67,-40.7"/>
<polygon fill="#f5f5f5" stroke="transparent" points="67.5,-78.2 67.5,-101.2 194.5,-101.2 194.5,-78.2 67.5,-78.2"/>
<polygon fill="none" stroke="#000000" points="67.5,-78.2 67.5,-101.2 194.5,-101.2 194.5,-78.2 67.5,-78.2"/>
<text text-anchor="start" x="72.5" y="-86.8" font-family="Helvetica,sans-Serif" font-weight="bold" font-size="11.00" fill="#000000">package_group</text>
<text text-anchor="start" x="160.0219" y="-86.3" font-family="Helvetica,sans-Serif" font-size="11.00" fill="#000000">[table]</text>
<polygon fill="none" stroke="#000000" points="67.5,-59.2 67.5,-78.2 194.5,-78.2 194.5,-59.2 67.5,-59.2"/>
<text text-anchor="start" x="70.5" y="-65.3" font-family="Helvetica,sans-Serif" font-size="11.00" fill="#000000">...</text>
<polygon fill="#ffffff" stroke="transparent" points="67.5,-40.2 67.5,-59.2 121.5,-59.2 121.5,-40.2 67.5,-40.2"/>
<polygon fill="none" stroke="#000000" points="67.5,-40.2 67.5,-59.2 121.5,-59.2 121.5,-40.2 67.5,-40.2"/>
<text text-anchor="start" x="70.5" y="-46.3" font-family="Helvetica,sans-Serif" font-size="11.00" fill="#000000">&lt; 1</text>
<polygon fill="#ffffff" stroke="transparent" points="121.5,-40.2 121.5,-59.2 150.5,-59.2 150.5,-40.2 121.5,-40.2"/>
<polygon fill="none" stroke="#000000" points="121.5,-40.2 121.5,-59.2 150.5,-59.2 150.5,-40.2 121.5,-40.2"/>
<text text-anchor="start" x="141.3862" y="-46.3" font-family="Helvetica,sans-Serif" font-size="11.00" fill="#000000"> &#160;</text>
<polygon fill="#ffffff" stroke="transparent" points="150.5,-40.2 150.5,-59.2 194.5,-59.2 194.5,-40.2 150.5,-40.2"/>
<polygon fill="none" stroke="#000000" points="150.5,-40.2 150.5,-59.2 194.5,-59.2 194.5,-40.2 150.5,-40.2"/>
<text text-anchor="start" x="169.7904" y="-46.3" font-family="Helvetica,sans-Serif" font-size="11.00" fill="#000000">14 &gt;</text>
</a>
</g>
</g>
<!-- favorite_packages&#45;&gt;package_group -->
<g id="edge4" class="edge">
<title>favorite_packages:w&#45;&gt;package_group:e</title>
<path fill="none" stroke="#000000" d="M311.5461,-68.2C264.6486,-68.2 247.8077,-68.2 194.5,-68.2"/>
<polygon fill="#000000" stroke="#000000" points="318,-68.2001 326,-71.8 322,-68.2 326,-68.2 326,-68.2 326,-68.2 322,-68.2 326,-64.6 318,-68.2001 318,-68.2001"/>
<ellipse fill="none" stroke="#000000" cx="314.8" cy="-68.2001" rx="3.2" ry="3.2"/>
</g>
<!-- personal_access_tokens -->
<g id="node7" class="node">
<title>personal_access_tokens</title>
<g id="a_node7"><a xlink:href="../../tables/personal_access_tokens.html" xlink:title="personal_access_tokens" target="_top">
<polygon fill="#ffffff" stroke="transparent" points="306.5,-315.7 306.5,-442.7 487.5,-442.7 487.5,-315.7 306.5,-315.7"/>
<polygon fill="#f5f5f5" stroke="transparent" points="307,-419.2 307,-442.2 488,-442.2 488,-419.2 307,-419.2"/>
<polygon fill="none" stroke="#000000" points="307,-419.2 307,-442.2 488,-442.2 488,-419.2 307,-419.2"/>
<text text-anchor="start" x="312" y="-427.8" font-family="Helvetica,sans-Serif" font-weight="bold" font-size="11.00" fill="#000000">personal_access_tokens</text>
<text text-anchor="start" x="453.5219" y="-427.3" font-family="Helvetica,sans-Serif" font-size="11.00" fill="#000000">[table]</text>
<polygon fill="none" stroke="#000000" points="307,-397.2 307,-419.2 488,-419.2 488,-397.2 307,-397.2"/>
<image xlink:href="../../images/primaryKeys.png" width="11px" height="12px" preserveAspectRatio="xMinYMin meet" x="312" y="-414.2"/>
<text text-anchor="start" x="336" y="-404.3" font-family="Helvetica,sans-Serif" font-size="11.00" fill="#000000">id</text>
<polygon fill="none" stroke="#000000" points="307,-375.2 307,-397.2 488,-397.2 488,-375.2 307,-375.2"/>
<image xlink:href="../../images/foreignKeys.png" width="11px" height="12px" preserveAspectRatio="xMinYMin meet" x="312" y="-392.2"/>
<text text-anchor="start" x="336" y="-382.3" font-family="Helvetica,sans-Serif" font-size="11.00" fill="#000000">user_id</text>
<polygon fill="#ffffff" stroke="transparent" points="307,-353.2 307,-375.2 488,-375.2 488,-353.2 307,-353.2"/>
<polygon fill="none" stroke="#000000" points="307,-353.2 307,-375.2 488,-375.2 488,-353.2 307,-353.2"/>
<text text-anchor="start" x="336" y="-360.3" font-family="Helvetica,sans-Serif" font-size="11.00" fill="#000000">token_hash</text>
<polygon fill="none" stroke="#000000" points="307,-334.2 307,-353.2 488,-353.2 488,-334.2 307,-334.2"/>
<text text-anchor="start" x="310" y="-340.3" font-family="Helvetica,sans-Serif" font-size="11.00" fill="#000000">...</text>
<polygon fill="#ffffff" stroke="transparent" points="307,-315.2 307,-334.2 396,-334.2 396,-315.2 307,-315.2"/>
<polygon fill="none" stroke="#000000" points="307,-315.2 307,-334.2 396,-334.2 396,-315.2 307,-315.2"/>
<text text-anchor="start" x="310" y="-321.3" font-family="Helvetica,sans-Serif" font-size="11.00" fill="#000000">&lt; 1</text>
<polygon fill="#ffffff" stroke="transparent" points="396,-315.2 396,-334.2 442,-334.2 442,-315.2 396,-315.2"/>
<polygon fill="none" stroke="#000000" points="396,-315.2 396,-334.2 442,-334.2 442,-315.2 396,-315.2"/>
<text text-anchor="start" x="432.8862" y="-321.3" font-family="Helvetica,sans-Serif" font-size="11.00" fill="#000000"> &#160;</text>
<polygon fill="#ffffff" stroke="transparent" points="442,-315.2 442,-334.2 488,-334.2 488,-315.2 442,-315.2"/>
<polygon fill="none" stroke="#000000" points="442,-315.2 442,-334.2 488,-334.2 488,-315.2 442,-315.2"/>
<text text-anchor="start" x="478.8862" y="-321.3" font-family="Helvetica,sans-Serif" font-size="11.00" fill="#000000"> &#160;</text>
</a>
</g>
</g>
<!-- personal_access_tokens&#45;&gt;user_data -->
<g id="edge6" class="edge">
<title>personal_access_tokens:w&#45;&gt;user_data:e</title>
<path fill="none" stroke="#000000" d="M293.1325,-382.0072C274.6535,-368.2256 282.283,-325.2 251.5,-325.2"/>
<polygon fill="#000000" stroke="#000000" points="299.3423,-383.8847 305.9581,-389.6459 303.1712,-385.0424 307,-386.2 307,-386.2 307,-386.2 303.1712,-385.0424 308.0419,-382.7541 299.3423,-383.8847 299.3423,-383.8847"/>
<ellipse fill="none" stroke="#000000" cx="296.2793" cy="-382.9586" rx="3.2" ry="3.2"/>
</g>
</g>
</svg>
