<?xml version="1.0" encoding="UTF-8" standalone="no"?>
<!DOCTYPE svg PUBLIC "-//W3C//DTD SVG 1.1//EN"
 "http://www.w3.org/Graphics/SVG/1.1/DTD/svg11.dtd">
<!-- Generated by graphviz version 2.40.1 (20161225.0304)
 -->
<!-- Title: twoDegreesRelationshipsDiagram Pages: 1 -->
<svg width="557pt" height="487pt"
 viewBox="0.00 0.00 557.00 486.70" xmlns="http://www.w3.org/2000/svg" xmlns:xlink="http://www.w3.org/1999/xlink">
<g id="graph0" class="graph" transform="scale(1 1) rotate(0) translate(4 482.7)">
<title>twoDegreesRelationshipsDiagram</title>
<polygon fill="#ffffff" stroke="transparent" points="-4,4 -4,-482.7 553,-482.7 553,4 -4,4"/>
<text text-anchor="middle" x="72.4936" y="-7.3" font-family="Helvetica,sans-Serif" font-size="11.00" fill="#000000">Generated by SchemaSpy</text>
<!-- comparison_internal_document -->
<g id="node1" class="node">
<title>comparison_internal_document</title>
<g id="a_node1"><a xlink:href="../../tables/comparison_internal_document.html" xlink:title="comparison_internal_document" target="_top">
<polygon fill="#ffffff" stroke="transparent" points="320,-236.2 320,-473.2 541,-473.2 541,-236.2 320,-236.2"/>
<polygon fill="#f5f5f5" stroke="transparent" points="320.5,-449.7 320.5,-472.7 541.5,-472.7 541.5,-449.7 320.5,-449.7"/>
<polygon fill="none" stroke="#000000" points="320.5,-449.7 320.5,-472.7 541.5,-472.7 541.5,-449.7 320.5,-449.7"/>
<text text-anchor="start" x="325.5" y="-458.3" font-family="Helvetica,sans-Serif" font-weight="bold" font-size="11.00" fill="#000000">comparison_internal_document</text>
<text text-anchor="start" x="507.0219" y="-457.8" font-family="Helvetica,sans-Serif" font-size="11.00" fill="#000000">[table]</text>
<polygon fill="none" stroke="#000000" points="320.5,-427.7 320.5,-449.7 541.5,-449.7 541.5,-427.7 320.5,-427.7"/>
<image xlink:href="../../images/primaryKeys.png" width="11px" height="12px" preserveAspectRatio="xMinYMin meet" x="325.5" y="-444.7"/>
<text text-anchor="start" x="349.5" y="-434.8" font-family="Helvetica,sans-Serif" font-size="11.00" fill="#000000">package_id</text>
<polygon fill="none" stroke="#000000" points="320.5,-405.7 320.5,-427.7 541.5,-427.7 541.5,-405.7 320.5,-405.7"/>
<image xlink:href="../../images/primaryKeys.png" width="11px" height="12px" preserveAspectRatio="xMinYMin meet" x="325.5" y="-422.7"/>
<text text-anchor="start" x="349.5" y="-412.8" font-family="Helvetica,sans-Serif" font-size="11.00" fill="#000000">version</text>
<polygon fill="none" stroke="#000000" points="320.5,-383.7 320.5,-405.7 541.5,-405.7 541.5,-383.7 320.5,-383.7"/>
<image xlink:href="../../images/primaryKeys.png" width="11px" height="12px" preserveAspectRatio="xMinYMin meet" x="325.5" y="-400.7"/>
<text text-anchor="start" x="349.5" y="-390.8" font-family="Helvetica,sans-Serif" font-size="11.00" fill="#000000">revision</text>
<polygon fill="none" stroke="#000000" points="320.5,-361.7 320.5,-383.7 541.5,-383.7 541.5,-361.7 320.5,-361.7"/>
<image xlink:href="../../images/primaryKeys.png" width="11px" height="12px" preserveAspectRatio="xMinYMin meet" x="325.5" y="-378.7"/>
<text text-anchor="start" x="349.5" y="-368.8" font-family="Helvetica,sans-Serif" font-size="11.00" fill="#000000">previous_package_id</text>
<polygon fill="none" stroke="#000000" points="320.5,-339.7 320.5,-361.7 541.5,-361.7 541.5,-339.7 320.5,-339.7"/>
<image xlink:href="../../images/primaryKeys.png" width="11px" height="12px" preserveAspectRatio="xMinYMin meet" x="325.5" y="-356.7"/>
<text text-anchor="start" x="349.5" y="-346.8" font-family="Helvetica,sans-Serif" font-size="11.00" fill="#000000">previous_version</text>
<polygon fill="none" stroke="#000000" points="320.5,-317.7 320.5,-339.7 541.5,-339.7 541.5,-317.7 320.5,-317.7"/>
<image xlink:href="../../images/primaryKeys.png" width="11px" height="12px" preserveAspectRatio="xMinYMin meet" x="325.5" y="-334.7"/>
<text text-anchor="start" x="349.5" y="-324.8" font-family="Helvetica,sans-Serif" font-size="11.00" fill="#000000">previous_revision</text>
<polygon fill="none" stroke="#000000" points="320.5,-295.7 320.5,-317.7 541.5,-317.7 541.5,-295.7 320.5,-295.7"/>
<image xlink:href="../../images/primaryKeys.png" width="11px" height="12px" preserveAspectRatio="xMinYMin meet" x="325.5" y="-312.7"/>
<text text-anchor="start" x="349.5" y="-302.8" font-family="Helvetica,sans-Serif" font-size="11.00" fill="#000000">document_id</text>
<polygon fill="#ffffff" stroke="transparent" points="320.5,-273.7 320.5,-295.7 541.5,-295.7 541.5,-273.7 320.5,-273.7"/>
<polygon fill="none" stroke="#000000" points="320.5,-273.7 320.5,-295.7 541.5,-295.7 541.5,-273.7 320.5,-273.7"/>
<image xlink:href="../../images/foreignKeys.png" width="11px" height="12px" preserveAspectRatio="xMinYMin meet" x="325.5" y="-290.7"/>
<text text-anchor="start" x="349.5" y="-280.8" font-family="Helvetica,sans-Serif" font-size="11.00" fill="#000000">hash</text>
<polygon fill="none" stroke="#000000" points="320.5,-254.7 320.5,-273.7 541.5,-273.7 541.5,-254.7 320.5,-254.7"/>
<text text-anchor="start" x="323.5" y="-260.8" font-family="Helvetica,sans-Serif" font-size="11.00" fill="#000000">...</text>
<polygon fill="#ffffff" stroke="transparent" points="320.5,-235.7 320.5,-254.7 429.5,-254.7 429.5,-235.7 320.5,-235.7"/>
<polygon fill="none" stroke="#000000" points="320.5,-235.7 320.5,-254.7 429.5,-254.7 429.5,-235.7 320.5,-235.7"/>
<text text-anchor="start" x="323.5" y="-241.8" font-family="Helvetica,sans-Serif" font-size="11.00" fill="#000000">&lt; 7</text>
<polygon fill="#ffffff" stroke="transparent" points="429.5,-235.7 429.5,-254.7 485.5,-254.7 485.5,-235.7 429.5,-235.7"/>
<polygon fill="none" stroke="#000000" points="429.5,-235.7 429.5,-254.7 485.5,-254.7 485.5,-235.7 429.5,-235.7"/>
<text text-anchor="start" x="476.3862" y="-241.8" font-family="Helvetica,sans-Serif" font-size="11.00" fill="#000000"> &#160;</text>
<polygon fill="#ffffff" stroke="transparent" points="485.5,-235.7 485.5,-254.7 541.5,-254.7 541.5,-235.7 485.5,-235.7"/>
<polygon fill="none" stroke="#000000" points="485.5,-235.7 485.5,-254.7 541.5,-254.7 541.5,-235.7 485.5,-235.7"/>
<text text-anchor="start" x="532.3862" y="-241.8" font-family="Helvetica,sans-Serif" font-size="11.00" fill="#000000"> &#160;</text>
</a>
</g>
</g>
<!-- comparison_internal_document_data -->
<g id="node2" class="node">
<title>comparison_internal_document_data</title>
<g id="a_node2"><a xlink:href="../../tables/comparison_internal_document_data.html" xlink:title="comparison_internal_document_data" target="_top">
<polygon fill="#ffffff" stroke="transparent" points="13.5,-38.2 13.5,-99.2 265.5,-99.2 265.5,-38.2 13.5,-38.2"/>
<polygon fill="#f5f5f5" stroke="transparent" points="13.5,-75.7 13.5,-98.7 265.5,-98.7 265.5,-75.7 13.5,-75.7"/>
<polygon fill="none" stroke="#000000" points="13.5,-75.7 13.5,-98.7 265.5,-98.7 265.5,-75.7 13.5,-75.7"/>
<text text-anchor="start" x="18.5" y="-84.3" font-family="Helvetica,sans-Serif" font-weight="bold" font-size="11.00" fill="#000000">comparison_internal_document_data</text>
<text text-anchor="start" x="231.0219" y="-83.8" font-family="Helvetica,sans-Serif" font-size="11.00" fill="#000000">[table]</text>
<polygon fill="none" stroke="#000000" points="13.5,-56.7 13.5,-75.7 265.5,-75.7 265.5,-56.7 13.5,-56.7"/>
<text text-anchor="start" x="16.5" y="-62.8" font-family="Helvetica,sans-Serif" font-size="11.00" fill="#000000">...</text>
<polygon fill="#ffffff" stroke="transparent" points="13.5,-37.7 13.5,-56.7 128.5,-56.7 128.5,-37.7 13.5,-37.7"/>
<polygon fill="none" stroke="#000000" points="13.5,-37.7 13.5,-56.7 128.5,-56.7 128.5,-37.7 13.5,-37.7"/>
<text text-anchor="start" x="16.5" y="-43.8" font-family="Helvetica,sans-Serif" font-size="11.00" fill="#000000"> &#160;</text>
<polygon fill="#ffffff" stroke="transparent" points="128.5,-37.7 128.5,-56.7 192.5,-56.7 192.5,-37.7 128.5,-37.7"/>
<polygon fill="none" stroke="#000000" points="128.5,-37.7 128.5,-56.7 192.5,-56.7 192.5,-37.7 128.5,-37.7"/>
<text text-anchor="start" x="183.3862" y="-43.8" font-family="Helvetica,sans-Serif" font-size="11.00" fill="#000000"> &#160;</text>
<polygon fill="#ffffff" stroke="transparent" points="192.5,-37.7 192.5,-56.7 265.5,-56.7 265.5,-37.7 192.5,-37.7"/>
<polygon fill="none" stroke="#000000" points="192.5,-37.7 192.5,-56.7 265.5,-56.7 265.5,-37.7 192.5,-37.7"/>
<text text-anchor="start" x="246.9053" y="-43.8" font-family="Helvetica,sans-Serif" font-size="11.00" fill="#000000">1 &gt;</text>
</a>
</g>
</g>
<!-- comparison_internal_document&#45;&gt;comparison_internal_document_data -->
<g id="edge1" class="edge">
<title>comparison_internal_document:w&#45;&gt;comparison_internal_document_data:e</title>
<path fill="none" stroke="#000000" d="M306.1626,-282.8067C235.3454,-261.4018 360.3677,-65.7 265.5,-65.7"/>
<polygon fill="#000000" stroke="#000000" points="312.5689,-283.6526 320.0287,-288.269 316.5344,-284.1763 320.5,-284.7 320.5,-284.7 320.5,-284.7 316.5344,-284.1763 320.9713,-281.131 312.5689,-283.6526 312.5689,-283.6526"/>
<ellipse fill="none" stroke="#000000" cx="309.3964" cy="-283.2337" rx="3.2" ry="3.2"/>
</g>
<!-- version_comparison -->
<g id="node3" class="node">
<title>version_comparison</title>
<g id="a_node3"><a xlink:href="../../tables/version_comparison.html" xlink:title="version_comparison" target="_top">
<polygon fill="#ffffff" stroke="transparent" points="8,-120.7 8,-474.7 271,-474.7 271,-120.7 8,-120.7"/>
<polygon fill="#f5f5f5" stroke="transparent" points="10.5,-449.7 10.5,-472.7 269.5,-472.7 269.5,-449.7 10.5,-449.7"/>
<polygon fill="none" stroke="#000000" points="10.5,-449.7 10.5,-472.7 269.5,-472.7 269.5,-449.7 10.5,-449.7"/>
<text text-anchor="start" x="15.5" y="-458.3" font-family="Helvetica,sans-Serif" font-weight="bold" font-size="11.00" fill="#000000">version_comparison</text>
<text text-anchor="start" x="234.5437" y="-457.8" font-family="Helvetica,sans-Serif" font-size="11.00" fill="#000000">[table]</text>
<polygon fill="none" stroke="#000000" points="10.5,-427.7 10.5,-449.7 153.5,-449.7 153.5,-427.7 10.5,-427.7"/>
<image xlink:href="../../images/primaryKeys.png" width="11px" height="12px" preserveAspectRatio="xMinYMin meet" x="15.5" y="-444.7"/>
<text text-anchor="start" x="30.5" y="-434.8" font-family="Helvetica,sans-Serif" font-size="11.00" fill="#000000">package_id</text>
<polygon fill="none" stroke="#000000" points="153.5,-427.7 153.5,-449.7 269.5,-449.7 269.5,-427.7 153.5,-427.7"/>
<text text-anchor="start" x="156.5" y="-435.4" font-family="Helvetica,sans-Serif" font-size="11.00" fill="#000000">varchar[2147483647]</text>
<polygon fill="none" stroke="#000000" points="10.5,-405.7 10.5,-427.7 153.5,-427.7 153.5,-405.7 10.5,-405.7"/>
<image xlink:href="../../images/primaryKeys.png" width="11px" height="12px" preserveAspectRatio="xMinYMin meet" x="15.5" y="-422.7"/>
<text text-anchor="start" x="30.5" y="-412.8" font-family="Helvetica,sans-Serif" font-size="11.00" fill="#000000">version</text>
<polygon fill="none" stroke="#000000" points="153.5,-405.7 153.5,-427.7 269.5,-427.7 269.5,-405.7 153.5,-405.7"/>
<text text-anchor="start" x="156.5" y="-413.4" font-family="Helvetica,sans-Serif" font-size="11.00" fill="#000000">varchar[2147483647]</text>
<polygon fill="none" stroke="#000000" points="10.5,-383.7 10.5,-405.7 153.5,-405.7 153.5,-383.7 10.5,-383.7"/>
<image xlink:href="../../images/primaryKeys.png" width="11px" height="12px" preserveAspectRatio="xMinYMin meet" x="15.5" y="-400.7"/>
<text text-anchor="start" x="30.5" y="-390.8" font-family="Helvetica,sans-Serif" font-size="11.00" fill="#000000">revision</text>
<polygon fill="none" stroke="#000000" points="153.5,-383.7 153.5,-405.7 269.5,-405.7 269.5,-383.7 153.5,-383.7"/>
<text text-anchor="start" x="156.5" y="-391.4" font-family="Helvetica,sans-Serif" font-size="11.00" fill="#000000">int4[10]</text>
<polygon fill="none" stroke="#000000" points="10.5,-361.7 10.5,-383.7 153.5,-383.7 153.5,-361.7 10.5,-361.7"/>
<image xlink:href="../../images/primaryKeys.png" width="11px" height="12px" preserveAspectRatio="xMinYMin meet" x="15.5" y="-378.7"/>
<text text-anchor="start" x="30.5" y="-368.8" font-family="Helvetica,sans-Serif" font-size="11.00" fill="#000000">previous_package_id</text>
<polygon fill="none" stroke="#000000" points="153.5,-361.7 153.5,-383.7 269.5,-383.7 269.5,-361.7 153.5,-361.7"/>
<text text-anchor="start" x="156.5" y="-369.4" font-family="Helvetica,sans-Serif" font-size="11.00" fill="#000000">varchar[2147483647]</text>
<polygon fill="none" stroke="#000000" points="10.5,-339.7 10.5,-361.7 153.5,-361.7 153.5,-339.7 10.5,-339.7"/>
<image xlink:href="../../images/primaryKeys.png" width="11px" height="12px" preserveAspectRatio="xMinYMin meet" x="15.5" y="-356.7"/>
<text text-anchor="start" x="30.5" y="-346.8" font-family="Helvetica,sans-Serif" font-size="11.00" fill="#000000">previous_version</text>
<polygon fill="none" stroke="#000000" points="153.5,-339.7 153.5,-361.7 269.5,-361.7 269.5,-339.7 153.5,-339.7"/>
<text text-anchor="start" x="156.5" y="-347.4" font-family="Helvetica,sans-Serif" font-size="11.00" fill="#000000">varchar[2147483647]</text>
<polygon fill="none" stroke="#000000" points="10.5,-317.7 10.5,-339.7 153.5,-339.7 153.5,-317.7 10.5,-317.7"/>
<image xlink:href="../../images/primaryKeys.png" width="11px" height="12px" preserveAspectRatio="xMinYMin meet" x="15.5" y="-334.7"/>
<text text-anchor="start" x="30.5" y="-324.8" font-family="Helvetica,sans-Serif" font-size="11.00" fill="#000000">previous_revision</text>
<polygon fill="none" stroke="#000000" points="153.5,-317.7 153.5,-339.7 269.5,-339.7 269.5,-317.7 153.5,-317.7"/>
<text text-anchor="start" x="156.5" y="-325.4" font-family="Helvetica,sans-Serif" font-size="11.00" fill="#000000">int4[10]</text>
<polygon fill="#ffffff" stroke="transparent" points="10.5,-295.7 10.5,-317.7 153.5,-317.7 153.5,-295.7 10.5,-295.7"/>
<polygon fill="none" stroke="#000000" points="10.5,-295.7 10.5,-317.7 153.5,-317.7 153.5,-295.7 10.5,-295.7"/>
<text text-anchor="start" x="30.5" y="-302.8" font-family="Helvetica,sans-Serif" font-size="11.00" fill="#000000">comparison_id</text>
<polygon fill="none" stroke="#000000" points="153.5,-295.7 153.5,-317.7 269.5,-317.7 269.5,-295.7 153.5,-295.7"/>
<text text-anchor="start" x="156.5" y="-303.4" font-family="Helvetica,sans-Serif" font-size="11.00" fill="#000000">varchar[2147483647]</text>
<polygon fill="none" stroke="#000000" points="10.5,-273.7 10.5,-295.7 153.5,-295.7 153.5,-273.7 10.5,-273.7"/>
<text text-anchor="start" x="30.5" y="-280.8" font-family="Helvetica,sans-Serif" font-size="11.00" fill="#000000">operation_types</text>
<polygon fill="none" stroke="#000000" points="153.5,-273.7 153.5,-295.7 269.5,-295.7 269.5,-273.7 153.5,-273.7"/>
<text text-anchor="start" x="156.5" y="-281.4" font-family="Helvetica,sans-Serif" font-size="11.00" fill="#000000">jsonb[2147483647]</text>
<polygon fill="none" stroke="#000000" points="10.5,-251.7 10.5,-273.7 153.5,-273.7 153.5,-251.7 10.5,-251.7"/>
<text text-anchor="start" x="30.5" y="-258.8" font-family="Helvetica,sans-Serif" font-size="11.00" fill="#000000">refs</text>
<polygon fill="none" stroke="#000000" points="153.5,-251.7 153.5,-273.7 269.5,-273.7 269.5,-251.7 153.5,-251.7"/>
<text text-anchor="start" x="156.4769" y="-259.4" font-family="Helvetica,sans-Serif" font-size="11.00" fill="#000000">_varchar[2147483647]</text>
<polygon fill="none" stroke="#000000" points="10.5,-229.7 10.5,-251.7 153.5,-251.7 153.5,-229.7 10.5,-229.7"/>
<text text-anchor="start" x="30.5" y="-236.8" font-family="Helvetica,sans-Serif" font-size="11.00" fill="#000000">open_count</text>
<polygon fill="none" stroke="#000000" points="153.5,-229.7 153.5,-251.7 269.5,-251.7 269.5,-229.7 153.5,-229.7"/>
<text text-anchor="start" x="156.5" y="-237.4" font-family="Helvetica,sans-Serif" font-size="11.00" fill="#000000">int8[19]</text>
<polygon fill="none" stroke="#000000" points="10.5,-207.7 10.5,-229.7 153.5,-229.7 153.5,-207.7 10.5,-207.7"/>
<text text-anchor="start" x="30.5" y="-214.8" font-family="Helvetica,sans-Serif" font-size="11.00" fill="#000000">last_active</text>
<polygon fill="none" stroke="#000000" points="153.5,-207.7 153.5,-229.7 269.5,-229.7 269.5,-207.7 153.5,-207.7"/>
<text text-anchor="start" x="156.5" y="-215.4" font-family="Helvetica,sans-Serif" font-size="11.00" fill="#000000">timestamp[29,6]</text>
<polygon fill="none" stroke="#000000" points="10.5,-185.7 10.5,-207.7 153.5,-207.7 153.5,-185.7 10.5,-185.7"/>
<text text-anchor="start" x="30.5" y="-192.8" font-family="Helvetica,sans-Serif" font-size="11.00" fill="#000000">no_content</text>
<polygon fill="none" stroke="#000000" points="153.5,-185.7 153.5,-207.7 269.5,-207.7 269.5,-185.7 153.5,-185.7"/>
<text text-anchor="start" x="156.5" y="-193.4" font-family="Helvetica,sans-Serif" font-size="11.00" fill="#000000">bool[1]</text>
<polygon fill="none" stroke="#000000" points="10.5,-163.7 10.5,-185.7 153.5,-185.7 153.5,-163.7 10.5,-163.7"/>
<text text-anchor="start" x="30.5" y="-170.8" font-family="Helvetica,sans-Serif" font-size="11.00" fill="#000000">builder_version</text>
<polygon fill="none" stroke="#000000" points="153.5,-163.7 153.5,-185.7 269.5,-185.7 269.5,-163.7 153.5,-163.7"/>
<text text-anchor="start" x="156.5" y="-171.4" font-family="Helvetica,sans-Serif" font-size="11.00" fill="#000000">varchar[2147483647]</text>
<polygon fill="none" stroke="#000000" points="10.5,-141.7 10.5,-163.7 153.5,-163.7 153.5,-141.7 10.5,-141.7"/>
<text text-anchor="start" x="30.5" y="-148.8" font-family="Helvetica,sans-Serif" font-size="11.00" fill="#000000">metadata</text>
<polygon fill="none" stroke="#000000" points="153.5,-141.7 153.5,-163.7 269.5,-163.7 269.5,-141.7 153.5,-141.7"/>
<text text-anchor="start" x="156.5" y="-149.4" font-family="Helvetica,sans-Serif" font-size="11.00" fill="#000000">jsonb[2147483647]</text>
<polygon fill="#ffffff" stroke="transparent" points="10.5,-122.7 10.5,-141.7 86.5,-141.7 86.5,-122.7 10.5,-122.7"/>
<polygon fill="none" stroke="#000000" points="10.5,-122.7 10.5,-141.7 86.5,-141.7 86.5,-122.7 10.5,-122.7"/>
<text text-anchor="start" x="13.5" y="-128.8" font-family="Helvetica,sans-Serif" font-size="11.00" fill="#000000">&lt; 0</text>
<polygon fill="#ffffff" stroke="transparent" points="86.5,-122.7 86.5,-141.7 153.5,-141.7 153.5,-122.7 86.5,-122.7"/>
<polygon fill="none" stroke="#000000" points="86.5,-122.7 86.5,-141.7 153.5,-141.7 153.5,-122.7 86.5,-122.7"/>
<text text-anchor="start" x="144.3862" y="-128.8" font-family="Helvetica,sans-Serif" font-size="11.00" fill="#000000"> &#160;</text>
<polygon fill="#ffffff" stroke="transparent" points="153.5,-122.7 153.5,-141.7 269.5,-141.7 269.5,-122.7 153.5,-122.7"/>
<polygon fill="none" stroke="#000000" points="153.5,-122.7 153.5,-141.7 269.5,-141.7 269.5,-122.7 153.5,-122.7"/>
<text text-anchor="start" x="250.9053" y="-128.8" font-family="Helvetica,sans-Serif" font-size="11.00" fill="#000000">7 &gt;</text>
<polygon fill="none" stroke="#000000" stroke-width="2" points="9,-121.7 9,-473.7 270,-473.7 270,-121.7 9,-121.7"/>
</a>
</g>
</g>
<!-- comparison_internal_document&#45;&gt;version_comparison -->
<g id="edge2" class="edge">
<title>comparison_internal_document:w&#45;&gt;version_comparison:e</title>
<path fill="none" stroke="#000000" d="M305.776,-438.7C293.7815,-438.7 286.3229,-438.7 269.5,-438.7"/>
<polygon fill="#000000" stroke="#000000" points="312.5,-438.7001 320.5,-442.3 316.5,-438.7 320.5,-438.7 320.5,-438.7 320.5,-438.7 316.5,-438.7 320.5,-435.1 312.5,-438.7001 312.5,-438.7001"/>
<ellipse fill="none" stroke="#000000" cx="309.3" cy="-438.7001" rx="3.2" ry="3.2"/>
</g>
<!-- comparison_internal_document&#45;&gt;version_comparison -->
<g id="edge3" class="edge">
<title>comparison_internal_document:w&#45;&gt;version_comparison:e</title>
<path fill="none" stroke="#000000" d="M305.776,-372.7C293.7815,-372.7 286.3229,-372.7 269.5,-372.7"/>
<polygon fill="#000000" stroke="#000000" points="312.5,-372.7001 320.5,-376.3 316.5,-372.7 320.5,-372.7 320.5,-372.7 320.5,-372.7 316.5,-372.7 320.5,-369.1 312.5,-372.7001 312.5,-372.7001"/>
<ellipse fill="none" stroke="#000000" cx="309.3" cy="-372.7001" rx="3.2" ry="3.2"/>
</g>
<!-- comparison_internal_document&#45;&gt;version_comparison -->
<g id="edge4" class="edge">
<title>comparison_internal_document:w&#45;&gt;version_comparison:e</title>
<path fill="none" stroke="#000000" d="M305.776,-328.7C293.7815,-328.7 286.3229,-328.7 269.5,-328.7"/>
<polygon fill="#000000" stroke="#000000" points="312.5,-328.7001 320.5,-332.3 316.5,-328.7 320.5,-328.7 320.5,-328.7 320.5,-328.7 316.5,-328.7 320.5,-325.1 312.5,-328.7001 312.5,-328.7001"/>
<ellipse fill="none" stroke="#000000" cx="309.3" cy="-328.7001" rx="3.2" ry="3.2"/>
</g>
<!-- comparison_internal_document&#45;&gt;version_comparison -->
<g id="edge5" class="edge">
<title>comparison_internal_document:w&#45;&gt;version_comparison:e</title>
<path fill="none" stroke="#000000" d="M305.776,-350.7C293.7815,-350.7 286.3229,-350.7 269.5,-350.7"/>
<polygon fill="#000000" stroke="#000000" points="312.5,-350.7001 320.5,-354.3 316.5,-350.7 320.5,-350.7 320.5,-350.7 320.5,-350.7 316.5,-350.7 320.5,-347.1 312.5,-350.7001 312.5,-350.7001"/>
<ellipse fill="none" stroke="#000000" cx="309.3" cy="-350.7001" rx="3.2" ry="3.2"/>
</g>
<!-- comparison_internal_document&#45;&gt;version_comparison -->
<g id="edge6" class="edge">
<title>comparison_internal_document:w&#45;&gt;version_comparison:e</title>
<path fill="none" stroke="#000000" d="M305.776,-394.7C293.7815,-394.7 286.3229,-394.7 269.5,-394.7"/>
<polygon fill="#000000" stroke="#000000" points="312.5,-394.7001 320.5,-398.3 316.5,-394.7 320.5,-394.7 320.5,-394.7 320.5,-394.7 316.5,-394.7 320.5,-391.1 312.5,-394.7001 312.5,-394.7001"/>
<ellipse fill="none" stroke="#000000" cx="309.3" cy="-394.7001" rx="3.2" ry="3.2"/>
</g>
<!-- comparison_internal_document&#45;&gt;version_comparison -->
<g id="edge7" class="edge">
<title>comparison_internal_document:w&#45;&gt;version_comparison:e</title>
<path fill="none" stroke="#000000" d="M305.776,-416.7C293.7815,-416.7 286.3229,-416.7 269.5,-416.7"/>
<polygon fill="#000000" stroke="#000000" points="312.5,-416.7001 320.5,-420.3 316.5,-416.7 320.5,-416.7 320.5,-416.7 320.5,-416.7 316.5,-416.7 320.5,-413.1 312.5,-416.7001 312.5,-416.7001"/>
<ellipse fill="none" stroke="#000000" cx="309.3" cy="-416.7001" rx="3.2" ry="3.2"/>
</g>
<!-- operation_comparison -->
<g id="node4" class="node">
<title>operation_comparison</title>
<g id="a_node4"><a xlink:href="../../tables/operation_comparison.html" xlink:title="operation_comparison" target="_top">
<polygon fill="#ffffff" stroke="transparent" points="320.5,-132.2 320.5,-215.2 540.5,-215.2 540.5,-132.2 320.5,-132.2"/>
<polygon fill="#f5f5f5" stroke="transparent" points="320.5,-191.7 320.5,-214.7 540.5,-214.7 540.5,-191.7 320.5,-191.7"/>
<polygon fill="none" stroke="#000000" points="320.5,-191.7 320.5,-214.7 540.5,-214.7 540.5,-191.7 320.5,-191.7"/>
<text text-anchor="start" x="325.5" y="-200.3" font-family="Helvetica,sans-Serif" font-weight="bold" font-size="11.00" fill="#000000">operation_comparison</text>
<text text-anchor="start" x="505.5437" y="-199.8" font-family="Helvetica,sans-Serif" font-size="11.00" fill="#000000">[table]</text>
<polygon fill="#ffffff" stroke="transparent" points="320.5,-169.7 320.5,-191.7 540.5,-191.7 540.5,-169.7 320.5,-169.7"/>
<polygon fill="none" stroke="#000000" points="320.5,-169.7 320.5,-191.7 540.5,-191.7 540.5,-169.7 320.5,-169.7"/>
<image xlink:href="../../images/foreignKeys.png" width="11px" height="12px" preserveAspectRatio="xMinYMin meet" x="325.5" y="-186.7"/>
<text text-anchor="start" x="340.5" y="-176.8" font-family="Helvetica,sans-Serif" font-size="11.00" fill="#000000">comparison_id</text>
<polygon fill="none" stroke="#000000" points="320.5,-150.7 320.5,-169.7 540.5,-169.7 540.5,-150.7 320.5,-150.7"/>
<text text-anchor="start" x="323.5" y="-156.8" font-family="Helvetica,sans-Serif" font-size="11.00" fill="#000000">...</text>
<polygon fill="#ffffff" stroke="transparent" points="320.5,-131.7 320.5,-150.7 428.5,-150.7 428.5,-131.7 320.5,-131.7"/>
<polygon fill="none" stroke="#000000" points="320.5,-131.7 320.5,-150.7 428.5,-150.7 428.5,-131.7 320.5,-131.7"/>
<text text-anchor="start" x="323.5" y="-137.8" font-family="Helvetica,sans-Serif" font-size="11.00" fill="#000000">&lt; 1</text>
<polygon fill="#ffffff" stroke="transparent" points="428.5,-131.7 428.5,-150.7 484.5,-150.7 484.5,-131.7 428.5,-131.7"/>
<polygon fill="none" stroke="#000000" points="428.5,-131.7 428.5,-150.7 484.5,-150.7 484.5,-131.7 428.5,-131.7"/>
<text text-anchor="start" x="475.3862" y="-137.8" font-family="Helvetica,sans-Serif" font-size="11.00" fill="#000000"> &#160;</text>
<polygon fill="#ffffff" stroke="transparent" points="484.5,-131.7 484.5,-150.7 540.5,-150.7 540.5,-131.7 484.5,-131.7"/>
<polygon fill="none" stroke="#000000" points="484.5,-131.7 484.5,-150.7 540.5,-150.7 540.5,-131.7 484.5,-131.7"/>
<text text-anchor="start" x="531.3862" y="-137.8" font-family="Helvetica,sans-Serif" font-size="11.00" fill="#000000"> &#160;</text>
</a>
</g>
</g>
<!-- operation_comparison&#45;&gt;version_comparison -->
<g id="edge8" class="edge">
<title>operation_comparison:w&#45;&gt;version_comparison:e</title>
<path fill="none" stroke="#000000" d="M306.2844,-184.0702C272.4826,-204.1077 324.0136,-306.7 269.5,-306.7"/>
<polygon fill="#000000" stroke="#000000" points="312.7158,-182.5455 321.3305,-184.2029 316.6079,-181.6228 320.5,-180.7 320.5,-180.7 320.5,-180.7 316.6079,-181.6228 319.6695,-177.1971 312.7158,-182.5455 312.7158,-182.5455"/>
<ellipse fill="none" stroke="#000000" cx="309.6021" cy="-183.2837" rx="3.2" ry="3.2"/>
</g>
</g>
</svg>
