<?xml version="1.0" encoding="UTF-8" standalone="no"?>
<!DOCTYPE svg PUBLIC "-//W3C//DTD SVG 1.1//EN"
 "http://www.w3.org/Graphics/SVG/1.1/DTD/svg11.dtd">
<!-- Generated by graphviz version 2.40.1 (20161225.0304)
 -->
<!-- Title: twoDegreesRelationshipsDiagram Pages: 1 -->
<svg width="590pt" height="236pt"
 viewBox="0.00 0.00 590.00 235.70" xmlns="http://www.w3.org/2000/svg" xmlns:xlink="http://www.w3.org/1999/xlink">
<g id="graph0" class="graph" transform="scale(1 1) rotate(0) translate(4 231.7)">
<title>twoDegreesRelationshipsDiagram</title>
<polygon fill="#ffffff" stroke="transparent" points="-4,4 -4,-231.7 586,-231.7 586,4 -4,4"/>
<text text-anchor="middle" x="72.4936" y="-7.3" font-family="Helvetica,sans-Serif" font-size="11.00" fill="#000000">Generated by SchemaSpy</text>
<!-- version_internal_document -->
<g id="node1" class="node">
<title>version_internal_document</title>
<g id="a_node1"><a xlink:href="../../tables/version_internal_document.html" xlink:title="version_internal_document" target="_top">
<polygon fill="#ffffff" stroke="transparent" points="379,-52.7 379,-223.7 574,-223.7 574,-52.7 379,-52.7"/>
<polygon fill="#f5f5f5" stroke="transparent" points="379.5,-200.2 379.5,-223.2 574.5,-223.2 574.5,-200.2 379.5,-200.2"/>
<polygon fill="none" stroke="#000000" points="379.5,-200.2 379.5,-223.2 574.5,-223.2 574.5,-200.2 379.5,-200.2"/>
<text text-anchor="start" x="384.5" y="-208.8" font-family="Helvetica,sans-Serif" font-weight="bold" font-size="11.00" fill="#000000">version_internal_document</text>
<text text-anchor="start" x="540.0219" y="-208.3" font-family="Helvetica,sans-Serif" font-size="11.00" fill="#000000">[table]</text>
<polygon fill="none" stroke="#000000" points="379.5,-178.2 379.5,-200.2 574.5,-200.2 574.5,-178.2 379.5,-178.2"/>
<image xlink:href="../../images/primaryKeys.png" width="11px" height="12px" preserveAspectRatio="xMinYMin meet" x="384.5" y="-195.2"/>
<text text-anchor="start" x="408.5" y="-185.3" font-family="Helvetica,sans-Serif" font-size="11.00" fill="#000000">package_id</text>
<polygon fill="none" stroke="#000000" points="379.5,-156.2 379.5,-178.2 574.5,-178.2 574.5,-156.2 379.5,-156.2"/>
<image xlink:href="../../images/primaryKeys.png" width="11px" height="12px" preserveAspectRatio="xMinYMin meet" x="384.5" y="-173.2"/>
<text text-anchor="start" x="408.5" y="-163.3" font-family="Helvetica,sans-Serif" font-size="11.00" fill="#000000">version</text>
<polygon fill="none" stroke="#000000" points="379.5,-134.2 379.5,-156.2 574.5,-156.2 574.5,-134.2 379.5,-134.2"/>
<image xlink:href="../../images/primaryKeys.png" width="11px" height="12px" preserveAspectRatio="xMinYMin meet" x="384.5" y="-151.2"/>
<text text-anchor="start" x="408.5" y="-141.3" font-family="Helvetica,sans-Serif" font-size="11.00" fill="#000000">revision</text>
<polygon fill="none" stroke="#000000" points="379.5,-112.2 379.5,-134.2 574.5,-134.2 574.5,-112.2 379.5,-112.2"/>
<image xlink:href="../../images/primaryKeys.png" width="11px" height="12px" preserveAspectRatio="xMinYMin meet" x="384.5" y="-129.2"/>
<text text-anchor="start" x="408.5" y="-119.3" font-family="Helvetica,sans-Serif" font-size="11.00" fill="#000000">document_id</text>
<polygon fill="#ffffff" stroke="transparent" points="379.5,-90.2 379.5,-112.2 574.5,-112.2 574.5,-90.2 379.5,-90.2"/>
<polygon fill="none" stroke="#000000" points="379.5,-90.2 379.5,-112.2 574.5,-112.2 574.5,-90.2 379.5,-90.2"/>
<image xlink:href="../../images/foreignKeys.png" width="11px" height="12px" preserveAspectRatio="xMinYMin meet" x="384.5" y="-107.2"/>
<text text-anchor="start" x="408.5" y="-97.3" font-family="Helvetica,sans-Serif" font-size="11.00" fill="#000000">hash</text>
<polygon fill="none" stroke="#000000" points="379.5,-71.2 379.5,-90.2 574.5,-90.2 574.5,-71.2 379.5,-71.2"/>
<text text-anchor="start" x="382.5" y="-77.3" font-family="Helvetica,sans-Serif" font-size="11.00" fill="#000000">...</text>
<polygon fill="#ffffff" stroke="transparent" points="379.5,-52.2 379.5,-71.2 475.5,-71.2 475.5,-52.2 379.5,-52.2"/>
<polygon fill="none" stroke="#000000" points="379.5,-52.2 379.5,-71.2 475.5,-71.2 475.5,-52.2 379.5,-52.2"/>
<text text-anchor="start" x="382.5" y="-58.3" font-family="Helvetica,sans-Serif" font-size="11.00" fill="#000000">&lt; 4</text>
<polygon fill="#ffffff" stroke="transparent" points="475.5,-52.2 475.5,-71.2 524.5,-71.2 524.5,-52.2 475.5,-52.2"/>
<polygon fill="none" stroke="#000000" points="475.5,-52.2 475.5,-71.2 524.5,-71.2 524.5,-52.2 475.5,-52.2"/>
<text text-anchor="start" x="515.3862" y="-58.3" font-family="Helvetica,sans-Serif" font-size="11.00" fill="#000000"> &#160;</text>
<polygon fill="#ffffff" stroke="transparent" points="524.5,-52.2 524.5,-71.2 574.5,-71.2 574.5,-52.2 524.5,-52.2"/>
<polygon fill="none" stroke="#000000" points="524.5,-52.2 524.5,-71.2 574.5,-71.2 574.5,-52.2 524.5,-52.2"/>
<text text-anchor="start" x="565.3862" y="-58.3" font-family="Helvetica,sans-Serif" font-size="11.00" fill="#000000"> &#160;</text>
</a>
</g>
</g>
<!-- version_internal_document_data -->
<g id="node2" class="node">
<title>version_internal_document_data</title>
<g id="a_node2"><a xlink:href="../../tables/version_internal_document_data.html" xlink:title="version_internal_document_data" target="_top">
<polygon fill="#ffffff" stroke="transparent" points="8,-38.2 8,-128.2 330,-128.2 330,-38.2 8,-38.2"/>
<polygon fill="#f5f5f5" stroke="transparent" points="10,-103.2 10,-126.2 328,-126.2 328,-103.2 10,-103.2"/>
<polygon fill="none" stroke="#000000" points="10,-103.2 10,-126.2 328,-126.2 328,-103.2 10,-103.2"/>
<text text-anchor="start" x="15" y="-111.8" font-family="Helvetica,sans-Serif" font-weight="bold" font-size="11.00" fill="#000000">version_internal_document_data</text>
<text text-anchor="start" x="293.0437" y="-111.3" font-family="Helvetica,sans-Serif" font-size="11.00" fill="#000000">[table]</text>
<polygon fill="none" stroke="#000000" points="10,-81.2 10,-103.2 219,-103.2 219,-81.2 10,-81.2"/>
<image xlink:href="../../images/primaryKeys.png" width="11px" height="12px" preserveAspectRatio="xMinYMin meet" x="15" y="-98.2"/>
<text text-anchor="start" x="30" y="-88.3" font-family="Helvetica,sans-Serif" font-size="11.00" fill="#000000">hash</text>
<polygon fill="none" stroke="#000000" points="219,-81.2 219,-103.2 328,-103.2 328,-81.2 219,-81.2"/>
<text text-anchor="start" x="221.5344" y="-88.9" font-family="Helvetica,sans-Serif" font-size="11.00" fill="#000000">varchar[2147483647]</text>
<polygon fill="none" stroke="#000000" points="10,-59.2 10,-81.2 219,-81.2 219,-59.2 10,-59.2"/>
<text text-anchor="start" x="30" y="-66.3" font-family="Helvetica,sans-Serif" font-size="11.00" fill="#000000">data</text>
<polygon fill="none" stroke="#000000" points="219,-59.2 219,-81.2 328,-81.2 328,-59.2 219,-59.2"/>
<text text-anchor="start" x="222" y="-66.9" font-family="Helvetica,sans-Serif" font-size="11.00" fill="#000000">bytea[2147483647]</text>
<polygon fill="#ffffff" stroke="transparent" points="10,-40.2 10,-59.2 119,-59.2 119,-40.2 10,-40.2"/>
<polygon fill="none" stroke="#000000" points="10,-40.2 10,-59.2 119,-59.2 119,-40.2 10,-40.2"/>
<text text-anchor="start" x="13" y="-46.3" font-family="Helvetica,sans-Serif" font-size="11.00" fill="#000000">&lt; 0</text>
<polygon fill="#ffffff" stroke="transparent" points="119,-40.2 119,-59.2 219,-59.2 219,-40.2 119,-40.2"/>
<polygon fill="none" stroke="#000000" points="119,-40.2 119,-59.2 219,-59.2 219,-40.2 119,-40.2"/>
<text text-anchor="start" x="209.8862" y="-46.3" font-family="Helvetica,sans-Serif" font-size="11.00" fill="#000000"> &#160;</text>
<polygon fill="#ffffff" stroke="transparent" points="219,-40.2 219,-59.2 328,-59.2 328,-40.2 219,-40.2"/>
<polygon fill="none" stroke="#000000" points="219,-40.2 219,-59.2 328,-59.2 328,-40.2 219,-40.2"/>
<text text-anchor="start" x="309.4053" y="-46.3" font-family="Helvetica,sans-Serif" font-size="11.00" fill="#000000">1 &gt;</text>
<polygon fill="none" stroke="#000000" stroke-width="2" points="9,-39.2 9,-127.2 329,-127.2 329,-39.2 9,-39.2"/>
</a>
</g>
</g>
<!-- version_internal_document&#45;&gt;version_internal_document_data -->
<g id="edge1" class="edge">
<title>version_internal_document:w&#45;&gt;version_internal_document_data:e</title>
<path fill="none" stroke="#000000" d="M364.9181,-99.7937C352.612,-97.2625 345.4268,-92.2 328,-92.2"/>
<polygon fill="#000000" stroke="#000000" points="371.5369,-100.432 379.1544,-104.7834 375.5185,-100.816 379.5,-101.2 379.5,-101.2 379.5,-101.2 375.5185,-100.816 379.8456,-97.6166 371.5369,-100.432 371.5369,-100.432"/>
<ellipse fill="none" stroke="#000000" cx="368.3517" cy="-100.1248" rx="3.2" ry="3.2"/>
</g>
<!-- published_version -->
<g id="node3" class="node">
<title>published_version</title>
<g id="a_node3"><a xlink:href="../../tables/published_version.html" xlink:title="published_version" target="_top">
<polygon fill="#ffffff" stroke="transparent" points="96.5,-149.7 96.5,-210.7 241.5,-210.7 241.5,-149.7 96.5,-149.7"/>
<polygon fill="#f5f5f5" stroke="transparent" points="97,-187.2 97,-210.2 242,-210.2 242,-187.2 97,-187.2"/>
<polygon fill="none" stroke="#000000" points="97,-187.2 97,-210.2 242,-210.2 242,-187.2 97,-187.2"/>
<text text-anchor="start" x="102" y="-195.8" font-family="Helvetica,sans-Serif" font-weight="bold" font-size="11.00" fill="#000000">published_version</text>
<text text-anchor="start" x="207.5219" y="-195.3" font-family="Helvetica,sans-Serif" font-size="11.00" fill="#000000">[table]</text>
<polygon fill="none" stroke="#000000" points="97,-168.2 97,-187.2 242,-187.2 242,-168.2 97,-168.2"/>
<text text-anchor="start" x="100" y="-174.3" font-family="Helvetica,sans-Serif" font-size="11.00" fill="#000000">...</text>
<polygon fill="#ffffff" stroke="transparent" points="97,-149.2 97,-168.2 160,-168.2 160,-149.2 97,-149.2"/>
<polygon fill="none" stroke="#000000" points="97,-149.2 97,-168.2 160,-168.2 160,-149.2 97,-149.2"/>
<text text-anchor="start" x="100" y="-155.3" font-family="Helvetica,sans-Serif" font-size="11.00" fill="#000000">&lt; 1</text>
<polygon fill="#ffffff" stroke="transparent" points="160,-149.2 160,-168.2 193,-168.2 193,-149.2 160,-149.2"/>
<polygon fill="none" stroke="#000000" points="160,-149.2 160,-168.2 193,-168.2 193,-149.2 160,-149.2"/>
<text text-anchor="start" x="183.8862" y="-155.3" font-family="Helvetica,sans-Serif" font-size="11.00" fill="#000000"> &#160;</text>
<polygon fill="#ffffff" stroke="transparent" points="193,-149.2 193,-168.2 242,-168.2 242,-149.2 193,-149.2"/>
<polygon fill="none" stroke="#000000" points="193,-149.2 193,-168.2 242,-168.2 242,-149.2 193,-149.2"/>
<text text-anchor="start" x="217.2904" y="-155.3" font-family="Helvetica,sans-Serif" font-size="11.00" fill="#000000">21 &gt;</text>
</a>
</g>
</g>
<!-- version_internal_document&#45;&gt;published_version -->
<g id="edge2" class="edge">
<title>version_internal_document:w&#45;&gt;published_version:e</title>
<path fill="none" stroke="#000000" d="M364.9738,-188.9603C315.3403,-187.269 298.1915,-177.2 242,-177.2"/>
<polygon fill="#000000" stroke="#000000" points="371.5011,-189.068 379.4406,-192.7995 375.5005,-189.134 379.5,-189.2 379.5,-189.2 379.5,-189.2 375.5005,-189.134 379.5594,-185.6005 371.5011,-189.068 371.5011,-189.068"/>
<ellipse fill="none" stroke="#000000" cx="368.3015" cy="-189.0151" rx="3.2" ry="3.2"/>
</g>
<!-- version_internal_document&#45;&gt;published_version -->
<g id="edge3" class="edge">
<title>version_internal_document:w&#45;&gt;published_version:e</title>
<path fill="none" stroke="#000000" d="M365.0272,-145.8107C314.4437,-150.2347 299.5973,-177.2 242,-177.2"/>
<polygon fill="#000000" stroke="#000000" points="371.5071,-145.5373 379.6518,-148.7968 375.5036,-145.3687 379.5,-145.2 379.5,-145.2 379.5,-145.2 375.5036,-145.3687 379.3482,-141.6032 371.5071,-145.5373 371.5071,-145.5373"/>
<ellipse fill="none" stroke="#000000" cx="368.31" cy="-145.6722" rx="3.2" ry="3.2"/>
</g>
<!-- version_internal_document&#45;&gt;published_version -->
<g id="edge4" class="edge">
<title>version_internal_document:w&#45;&gt;published_version:e</title>
<path fill="none" stroke="#000000" d="M364.9874,-167.3998C315.3888,-168.8092 298.1266,-177.2 242,-177.2"/>
<polygon fill="#000000" stroke="#000000" points="371.5008,-167.3102 379.5496,-170.7997 375.5004,-167.2551 379.5,-167.2 379.5,-167.2 379.5,-167.2 375.5004,-167.2551 379.4504,-163.6003 371.5008,-167.3102 371.5008,-167.3102"/>
<ellipse fill="none" stroke="#000000" cx="368.3011" cy="-167.3542" rx="3.2" ry="3.2"/>
</g>
</g>
</svg>
